/* XPM */
static char *Untitled_10_1674301198[] = {
/* columns rows colors chars-per-pixel */
"90 90 72 1 ",
"  c #574E5E",
". c #574E5F",
"X c #6E554E",
"o c #795846",
"O c #766455",
"+ c #7B6E59",
"@ c #4B4B67",
"# c #40486F",
"$ c #514D63",
"% c #46546C",
"& c #47556D",
"* c #48566D",
"= c #48566E",
"- c #525869",
"; c #525969",
": c #53586F",
"> c #555B70",
", c #585D71",
"< c #567663",
"1 c #5B7C66",
"2 c #646963",
"3 c #646A63",
"4 c #855B3E",
"5 c #9C622E",
"6 c #9E6730",
"7 c #A16C32",
"8 c #A26D34",
"9 c #A36F36",
"0 c #A67636",
"q c #A67637",
"w c #856247",
"e c #837D60",
"r c #6DA558",
"t c #75AD5D",
"y c #61816A",
"u c #658869",
"i c #729E67",
"p c #75A566",
"a c #7DB662",
"s c #AC803B",
"d c #B0843E",
"f c #9A9C52",
"g c #B69444",
"h c #B69544",
"j c #B99946",
"k c #BD9F48",
"l c #BE9F4B",
"z c #ACAD4C",
"x c #BEBE47",
"c c #B6A555",
"v c #B6A655",
"b c #B7AB51",
"n c #B9AE50",
"m c #8D8560",
"M c #80B863",
"N c #82BB65",
"B c #82BB66",
"V c #C1974C",
"C c #C1974D",
"Z c #CABD4B",
"A c #C9BA4D",
"S c #CDA957",
"D c #C6B351",
"F c #C7B351",
"G c #CEBA56",
"H c #CDBD60",
"J c #D0CF41",
"K c #D4C770",
"L c #E6CC6B",
"P c #E6CC6C",
"I c #EEE07A",
"U c #FFF080",
/* pixels */
"NNNNNNNNNNNNNNNNNNNNNNNNNNNNNNNNNNNNNNNNNNNNNNNNNNNNNNNNNNNNNNNNNNNNNNNNNNNNNNNNNNNNNNNNNN",
"NNNNNNNNNNNNNNNNNNNNNNNNNNNNNNNNNNNNNNNNNNNNNNNNNNNNNNNNNNNNNNNNNNNNNNNNNNNNNNNNNNNNNNNNNN",
"NNNNNNNNNNNNNNNNNNNNNNNNNNNNNNNNNNNNNNNNNNNNNNNNNNNNNNNNNNNNNNNNNNNNNNNNNNNNNNNNNNNNNNNNNN",
"NNNNNNNNNNNNNNNNNNNNNNNNNNNNNNNNNNNNNNNNNNNNNNNNNNNNNNNNNNNNNNNNNNNNNNNNNNNNNNNNNNNNNNNNNN",
"NNNNNNNNNNNNNNNNNNNNNNNNNNNNNNNNNNNNNNNNNNNNNNNNNNNNNNNNNNNNNNNNNNNNNNNNNNNNNNNNNNNNNNNNNN",
"NNNNNNNNNNNNNNNNNNNNNNNNNNNNNNNNNNNNNNNNNNNNNNNNNNNNNNNNNNNNNNNNNNNNNNNNNNNNNNNNNNNNNNNNNN",
"NNNNNNNNNNNNNNNNNNNNNNNNNNNNNNNNNNNNNNNNNNNNNNNNNNNNNNNNNNNNNNNNNNNNNNNNNNNNNNNNNNNNNNNNNN",
"NNNNNNNNNNNNNNNNNNNNNNNNNNNNNNNNNNNNNNNNNNNNNNNNNNNNNNNNNNNNNNNNNNNNNNNNNNNNNNNNNNNNNNNNNN",
"NNNNNNNNNNNNNNNNNNNNNNNNNNNNNNNNNNNNNNNNNNNNNNNNNNNNNNNNNNNNNNNNNNNNNNNNNNNNNNNNNNNNNNNNNN",
"NNNNNNNNNNNNNNNNNNNNNNNNNNNNNNNNNNNNNNNNNNNNNNNNNNNNNNNNNNNNNNNNNNNNNNNNNNNNNNNNNNNNNNNNNN",
"NNNNNNNNNNNNNNNNNNNNNNNNNNNNNNNNNNNNNNNNNNNNNNNNNNNNNNNNNNNNNNNNNNNNNNNNNNNNNNNNNNNNNNNNNN",
"NNNNNNNNNNNNNNNNNNNNNNNNNNNNNNNNNNNNNNNNNNNNNNNNNNNNNNNNNNNNNarrtNNNNNNNNNNNNNNNNNNNNNNNNN",
"NNNNNNNNNNNNNNNNNNNNNNNNNNNNNNNNNNNNNNNNNNNNNNNNNNNNNNNNNNNNNarrtNNNNNNNNNNNNNNNNNNNNNNNNN",
"NNNNNNNNNNNNNyyyyyyyyyyyyyyyyyyyyyyyyyyyyyyyyyyyyyyyyyyyyyyyyy<<1yyyyyyyyyyyuNNNNNNNNNNNNN",
"NNNNNNNNNNNNN###############################################################=NNNNNNNNNNNNN",
"NNNNNNNNNNNNN###############################################################=NNNNNNNNNNNNN",
"NNNNNNNNNNpii###2222222222222222222222222222222222222222222222222222222222##*piiNNNNNNNNNN",
"NNNNNNNNNN*#####JJJJJJJJJJJJJJJJJJJJJJJJJJJJJJJJJJJJJJJJJJJJJJJJJJJJJJJJJJ#####%NNNNNNNNNN",
"NNNNNNNNNN*#####JJJJJJJJJJJJJJJJJJJJJJJJJJJJJJJJJJJJJJJJJJJJJJJJJJJJJJJJJJ#####*NNNNNNNNNN",
"NNNNNNNNNN*#####JJJJJJJJJJJJJJJJJJJJJJJJJJJJJJJJJJJJJJJJJJJJJJJJJJJJJJJJJJ#####*NNNNNNNNNN",
"NNNNNNNNNN*##JJJ##;JJJJJJJJJJJJJJJJJJJJJJJJJJJJJJJJJJJJJJJJJJJJJJJJJJJJ-##JJx##*NNNNNNNNNN",
"NNNNNNNNNN*##JJJ##;JJJJJJJJJJJJJJJJJJJJJJJJJJJJJJJJJJJJJJJJJJJJJJJJJJJJ-##JJx##*NNNNNNNNNN",
"NNNNNNNNNN*##JJJ##;JJJJJJJJJJJJJJJJJJJJJJJJJJJJJJJJJJJJJJJJJJJJJJJJJJJJ-##JJx##%NNNNNNNNNN",
"NNNNNNNNNN*##AAAzzz2222233333332333333333333333333333333333333332222222fzzZAb##%NNNNNNNNNN",
"NNNNNNNNNN*##FFFJJx####################################################xJJFFv##*NNNNNNNNNN",
"NNNNNNNNNN*##FFFJJx####################################################ZJJFFv##>NNNNNNNNNN",
"NNNNNNNNNN*##FFFZZn##$oooooooooooooooooooooooooooooooooooooooooooooo@##nZZFFv##*NNNNNNNNNN",
"NNNNNNNNNN*##FFFFFv##.5555555555555555555555555555555555555555555555.##vFFFFv##*NNNNNNNNNN",
"NNNNNNNNNN*##FFFFFv##.5555555555555555555555555555555555555555555555$##vFFFFv##*NNNNNNNNNN",
"NNNNNNNNNN*##FFFFFv##.5555555555555555555555555555555555555555555555.##vFFFFv##*NNNNNNNNNN",
"NNNNNNNNNN*##FFFFFv##.5555555555555555555555555555555555555555555555.##vFFFFv##*NNNNNNNNNN",
"NNNNNNNNNN*##FFFFFv##.5555555555555555555555555555555555555555555555.##vFFFFv##*NNNNNNNNNN",
"NNNNNNNNNN*##FFFFFv##.556786886q888777777777777777777777777777777555.##cFFFFc##*NNNNNNNNNN",
"NNNNNNNNNN*##FFFFFv##.55qFFFFFFFFFFFFFFFFFFFFFFFFFFFFFFFFFFFFFFFFq55.##cFFFFc##*NNNNNNNNNN",
"NNNNNNNNNN*##FFFFFv##.55sGFFFFFFFFFFFFFFFFFFFFFFFFFFFFFFFFFFFFFFF055.##cFFFFc##*NNNNNNNNNN",
"NNNNNNNNNN*##FFFFFb##.55sFFFFFFFFFFFFFFFFFFFFFFFFFFFFFFFFFFFFFFFF055.##cFFFFc##*NNNNNNNNNN",
"NNNNNNNNNN*##FFFFFv##.55sFFh5555555555555555555555555555555555hFF055.##cFFFFc##*NNNNNNNNNN",
"NNNNNNNNNN*##FFFFFv##.55sFFh5555555555555555555555555555555555hFFq55.##cFFFFc##*NNNNNNNNNN",
"NNNNNNNNNN*##FFFFFv##.55sFFh5556555555555555555555555555555555hFFq55.##vFFFFc##*NNNNNNNNNN",
"NNNNNNNNNN*##FFFFFv##.55sFFh55VPLLLLLLLLLLLLLLLLLLLLLLLLLPPl55hFFq55.##vFFFFc##*NNNNNNNNNN",
"NNNNNNNNNN*##FFFFFv##.55dFFg55SUIUUUUUUUUUUUUUUUUUUUUUUUUUUS55hFF055 ##vFFFFv##=NNNNNNNNNN",
"NNNNNNNNNN*##FFFFFv##.55qFFj55SUUUUUUUUUUUUUUUUUUUUUUUUUUUUS55hFF055 ##vFFFFv##=NNNNNNNNNN",
"NNNNNNNNNN*##FFFFFv##.55dAFg55SUUUUUUUUUUUUUUUUUUUUUUUUUUUUS55hFF055 ##vFFFFv##=NNNNNNNNNN",
"NNNNNNNNNN*##FFFFFv##$55qFFj55SIUUUUUUUUUUUUUUUUUUUUUUUUUUUS55hFF055 ##vFFFFv##=NNNNNNNNNN",
"NNNNNNNNNN*##FFFDDv##.55dFFg56SIUUIUUUUUUUUUUUUUUUUUUUUUUUUS55gFF055$##cFFFFv##=NNNNNNNNNN",
"NNNNNNNNNN*##FFFDZv##.55qFFj57VPPPLLPPLLPPPPPPPPPPPPPPPPPPPV55gFF055$##cFFFFv##=NNNNNNNNNN",
"NNNNNNNNNN*##FFFFFv##$55dAFh5555655565555555555555555555555555gFF055 @#cFFFFv##=NNNNNNNNNN",
"NNNNNNNNNN*##FFFFFv## 55qFFj5555655566555555555555555555555555gFS957$##cFFFFv##=NNNNNNNNNN",
"NNNNNNNNNN*##FFFFFv##.55dGGV8988777777777777777777777777777777jFFq55 ##cFFFFv##=NNNNNNNNNN",
"NNNNNNNNNN*##FFFFFv##.55VUIIKKHFFFFFFFFFFFFFFFFFFFFFFFFFFFFFFFFFFq55 ##cFFFFv##=NNNNNNNNNN",
"NNNNNNNNNN*##FFFFFv##.55VUUIKKHFFFFFFFFFFFFFFFFFFFFFFFFFFFFFFFFFFq55 ##cFFFFv##=NNNNNNNNNN",
"NNNNNNNNNN*##FFFFFv##.55VUUIKKHFFFFFFFFFFFFFFFFFFFFFFFFFFFFFFFFFFq55 ##cFFFFv##=NNNNNNNNNN",
"NNNNNNNNNN*##FFFFFv##.55w,,,>>mFFFFFFFFFFFFFFFFFFFFFFFFFFFFFFFFFFq55 ##cFFFFv##*NNNNNNNNNN",
"NNNNNNNNNN*##FFFFFv##.55o%####eFFFFFFFFFFFFFFFFFFFFFFFFFFFFFFFFFFq55 ##cFFFFv##*NNNNNNNNNN",
"NNNNNNNNNN*##FFFFFv##.55o#####uGFFFFFFFFFFFFFFFFFFFFFFFFFFFFFFFFFq55 ##cFFFFv##*NNNNNNNNNN",
"NNNNNNNNNN*##FFFFFv##.55o#####OqqkFFFFFFFFFFFFFFFFFFFFFFFFFFFFFFFq55 ##cFFFFv##*NNNNNNNNNN",
"NNNNNNNNNN*##FFFFFv##.55o#####X56hFFFFFFFFFFFFFFFFFFFFFFFFFFFFFFFq55 ##cFFFFv##=NNNNNNNNNN",
"NNNNNNNNNN*##FFFFFv##.55o#####X55hFFFFFFFFFFFFFFFFFFFFFFFFFFFFFFFq55 ##cFFFFv##=NNNNNNNNNN",
"NNNNNNNNNN*##FFFFFv##.556ue+XX455gFFFFFFFFFFFFFFFFFFFFFFFFFFFFFFF055 ##vFFFFv##=NNNNNNNNNN",
"NNNNNNNNNN*##FFFFFv##.55dSFg55555gFFFFFFFFFFFFFFFFFFFFFFFFFFFFFFF055 ##vFFFFv##=NNNNNNNNNN",
"NNNNNNNNNN*##FFFFFv##.55dFFj55555gFFFFFFFFFFFFFFFFFFFFFFFFFFFFFFF055$##cFFFFv##=NNNNNNNNNN",
"NNNNNNNNNN*##FFFFFv##.55qAFjqqqqqkFFFFFFFFFFFFFFFFFFFFFFFFFFFFFFF055$##cFFFFv##=NNNNNNNNNN",
"NNNNNNNNNN*##FFFFFv##.55qFFFFFFFFFFFFFFFFFFFFFFFFFFFFFFFFFFFFFFFF055 ##cFFFFv##=NNNNNNNNNN",
"NNNNNNNNNN*##FFFFFv##.55dFFFFFFFFFFFFFFFFFFFFFFFFFFFFFFFFFFFFFFFF055 ##vFFFFv##=NNNNNNNNNN",
"NNNNNNNNNN*##FFFFFv##.55qFFFFFFFFFFFFFFFFFFFFFFFFFFFFFFFFFFFFFFFFq55$##cFFFFv##=NNNNNNNNNN",
"NNNNNNNNNN*##FFFFFv##.55dFFFFFFFFFFFFFFFFFFFFFFFFFFFFFFFFFFFFFFFFq55 ##cFFFFv##*NNNNNNNNNN",
"NNNNNNNNNN*##FFFFFv##.55dZFFFFFFFFFFFFFFFFFFFFFFFFFFFFFFFFFFFFFFFq75 ##cFFFFv##*NNNNNNNNNN",
"NNNNNNNNNN*##FFFFFv##$55qGFFFFFFFFFFFFFFFFFFFFFFFFFFFFFFFFFFFFFFFq55 ##cFFFFv##*NNNNNNNNNN",
"NNNNNNNNNN*##FFFFFv##.550FFFFFFFFFFFFFFFFFFFFFFFFFFFFFFFFFFFFFFFF055 ##cFFFFv##*NNNNNNNNNN",
"NNNNNNNNNN*##FFFFFv##.55dFFFFFFFFFFFFFFFFFFFFFFFFFFFFFFFFFFFFFFFF055$@#cFFFFv##*NNNNNNNNNN",
"NNNNNNNNNN*##FFFFFv##.55dFFFFFFFFFFFFFFFFFFFFFFFFFFFFFFFFFFFFFFFF055$##cFFFFv##*NMNNNNNNNN",
"NNNNNNNNNN*##FFFFFv##.550FFFFFFFFFFFFFFFFFFFFFFFFFFFFFFFFFFFFFFFF055 ##cFFFFv##*MaNNNNNNNN",
"NNNNNNNNNN*##FFFFFv##.55dFFFFFFFFFFFFFFFFFFFFFFFFFFFFFFFFFFFFFFFF055 ##cFFFFv##%rtNNNNNNNN",
"NNNNNNNNNN*##FFFFFv##.55dFFFFFFFFFFFFFFFFFFFFFFFFFFFFFFFFFFFFFFFF055 ##cFFFFv##*rtNNNNNNNN",
"NNNNNNNNNN*##FFFFFv##$559FFFFFFFFFFFFFFFFFFFFFFFFFFFFFFFFFFFFFFFF055.##cFFFFv##*taNNNNNNNN",
"NNNNNNNNNN*##FFFFFn##.55dFFFFFFFFFFFFFFFFFFFFFFFFFFFFFFFFFFFFFFFF955.##cFFFFv##*NMNNNNNNNN",
"NNNNNNNNNN*##FFFFFv##.55sFFFFFFFFFFFFFFFFFFFFFFFFFFFFFFFFFFFFFFFFq55.##cFFFFc##*NNNNNNNNNN",
"NNNNNNNNNN*##FFFFFv##.55sFFFFFFFFFFFFFFFFFFFFFFFFFFFFFFFFFFFFFFFFq55.##cFFFFc##*NNNNNNNNNN",
"NNNNNNNNNN*##FFFFFv##.55sFFFFFFFFFFFFFFFFFFFFFFFFFFFFFFFFFFFFFFFFq55.##cFFFFc##*NNNNNNNNNN",
"NNNNNNNNNN*##FFFFFv##.55sFFFFFFFFFFFFFFFFFFFFFFFFFFFFFFFFFFFFFFFFq55.##cFFFFc##*NNNNNNNNNN",
"NNNNNNNNNN*##FFFFFv##$55dFFFFFFFFFFFFFFFFFFFFFFFFFFFFFFFFFFFFFFFF956$##cFFFFc##=NNNNNNNNNN",
"NNNNNNNNNN*####################################################################=NNNNNNNNNN",
"NNNNNNNNNN*####################################################################=NNNNNNNNNN",
"NNNNNNNNNN*####################################################################=NNNNNNNNNN",
"NNNNNNNNNNiiiiiiiiiiiiiiiiiiiiiiiiiiiiiiiiiiiiiiiiiiiiiiiiiiiiiiiiiiiiiiiiiiiiipNNNNNNNNNN",
"NNNNNNNNNNNNNNNNNNNNNNNNNNNNNNNNNNNNNNNNNNNNNNNNNNNNNNNNNNNNNNNNNNNNNNNNNNNNNNNNNNNNNNNNNN",
"NNNNNNNNNNNNNNNNNNNNNNNNNNNNNNNNNNNNNNNNNNNNNNNNNNNNNNNNNNNNNNNNNNNNNNNNNNNNNNNNNNNNNNNNNN",
"NNNNNNNNNNNNNNNNNNNNNNNNNNNNNNNNNNNNNNNNNNNNNNNNNNNNNNNNNNNNNNNNNNNNNNNNNNNNNNNNNNNNNNNNNN",
"NNNNNNNNNNNNNNNNNNNNNNNNNNNNNNNNNNNNNNNNNNNNNNNNNNNNNNNNNNNNNNNNNNNNNNNNNNNNNNNNNNNNNNNNNN",
"NNNNNNNNNNNNNNNNNNNNNNNNNNNNNNNNNNNNNNNNNNNNNNBBNNNNNNBNNNNNNNNNNNNNNNBBBBBBBBBBBBBBBBBNNN"
};
