/* XPM */
static char *free1673383089[] = {
/* columns rows colors chars-per-pixel */
"90 90 16 1 ",
"  c #6DA558",
". c #6FA859",
"X c #70A85A",
"o c #72AA5B",
"O c #74AD5C",
"+ c #75AD5D",
"@ c #77B05E",
"# c #78B15F",
"$ c #7AB360",
"% c #7BB461",
"& c #7CB461",
"* c #7DB662",
"= c #7FB863",
"- c #80B863",
"; c #81BA64",
": c #82BB65",
/* pixels */
"::::::::::::::::::::::::::::::::::::::::::::::::::::::::::::::::::::::::::::::::::::::::::",
"::::::::::::::::::::::::::::::::::::::::::::::::::::::::::::::::::::::::::::::::::::::::::",
"::::::::::::::::::::::::::::::::::::::::::::::::::::::::::::::::::::::::::::::::::::::::::",
"::::::::::::::::::::::::::::::::::::::::::::::::::::::::::::::::::::::::::::::::::::::::::",
"::::::::::::::::::::::::::::::::::::::::::::::::::::::::::::::::::::::::::::::::::::::::::",
"::::::::::::::::::::::::::::::::::::::::::::::::::::::::::::::::::::::::::::::::::::::::::",
"::::::::::::::::::::::::::::::::::::::::::::::::::::::::::::::::::::::::::::::::::::::::::",
"::::::::::::::::::::::::::::::::::::::::::::::::::::::::::::::::::::::::::::::::::::::::::",
"::::::::::::::::::::::::::::::::::::::::::::::::::::::::::::::::::::::::::::::::::::::::::",
"::::::::::::::::::::::::::::::::::::::::::::::::::::::::::::::::::::::::::::::::::::::::::",
"::::::::::::::::::::::::::::::::::::::::::::::::::::::::::::::::::::::::::::::::::::::::::",
":::::::::::::::::::::::::::::::::::::::::::::::::::::::::::::*  +:::::::::::::::::::::::::",
":::::::::::::::::::::::::::::::::::::::::::::::::::::::::::::-  +:::::::::::::::::::::::::",
":::::::::::::::::::::::::::::::::::::::::::::::::::::::::::::-  @:::::::::::::::::::::::::",
"::::::::::::::::::::::::::::::::::::::::::::::::::::::::   ::*  o::@  %:::::::::::::::::::",
"::::::::::::::::::::::::::::::::::::::::::::::::::::::::o  ::-  @::@  $:::::::::::::::::::",
"::::::::::::::::::::::::::::::::::::::::::::::::::::::::o o*:$ o+==@o @:::::::::::::::::::",
":::::::::::::::::::::::::::::::::::::::::::::::::::::::::::  o::$  @::::::::::::::::::::::",
":::::::::::::::::::::::::::::::::::::::::::::::::::::::::::  o::$. @::::::::::::::::::::::",
":::::::::::::::::::::::::::::::::::::::::::::::::::::::::::oo+*$@oo$::::::::::::::::::::::",
":::::::::::::::::::::::::::::::::::::::::::::::::::::::::::::*  +:::::::::::::::::::::::::",
":::::::::::::::::::::::::::::::::::::::::::::::::::::::::::::*  +:::::::::::::::::::::::::",
"::::::::::::::::::::::::::::::::::::::::::::::::::::::::::::::++@:::::::::::::::::::::::::",
"::::::::::::::::::::::::::::::::::::::::::::::::::::::::::::::::::::::::::::::::::::::::::",
"::::::::::::::::::::::::::::::::::::::::::::::::::::::::::::::::::::::::::::::::::::::::::",
"::::::::::::::::::::::$@@:::::::::::::::::::::::::::::::::::::::::::::::::::::::::::::::::",
"::::::::::::::::::::::o  -::::::::::::::::::::::::::::::::::::::::::::::::::::::::::::::::",
"::::::::::::::::::::::o  *::::::::::::::::::::::::::::::::::::::::::::::::::::::::::::::::",
"::::::::::::::::*++*::o  *::++$:::::::::::::::::::::::::::::::::::::::::::::::::::::::::::",
"::::::::::::::::$  $::o  ::*  o:::::::::::::::::::::::::::::::::::::::::::::::::::::::::::",
"::::::::::::::::$  %::o  *::  o:::::::::::::::::::::::::::::::::::::::::::::::::::::::::::",
"::::::::::::::::=**+oo$**+oo*$*:::::::::::::::::::::::::::::::::::::::::::::::::::::::::::",
":::::::::::::::::::O  *:-o o::::::::::::::::::::::::::::::::::::::::::::::::::::::::::::::",
":::::::::::::::::::+  *::   ::::::::::::::::::::::::::::::::::::::::::::::::::::::::::::::",
":::::::::::::::::::-=-o .*-:::::::::::::::::::::::::::::::::::::::::::::::::::::::::::::::",
"::::::::::::::::::::::o  *::::::::::::::::::::::::::::::::::::::::::::::::::::::::::::::::",
"::::::::::::::::::::::o  :::::::::::::::::::::::::::::::::::::::::::::::::::::::::::::::::",
"::::::::::::::::::::::::::::::::::::::::::::::::::::::::::::::::::::::::::::::::::::::::::",
"::::::::::::::::::::::::::::::::::::::::::::::::::::::::::::::::::::::::::::::::::::::::::",
"::::::::::::::::::::::::::::::::::::::::::::::::::::::::::::::::::::::::::::::::::::::::::",
"::::::::::::::::::::::::::::::::::::::::::::::::::::::::::::::::::::::::::::::::::::::::::",
"::::::::::::::::::::::::::::::::::::::::::::::::::::::::::::::::::::::::::::::::::::::::::",
"::::::::::::::::::::::::::::::::::::::::::::::::::::::::::::::::::::::::::::::::::::::::::",
"::::::::::::::::::::::::::::::::::::::::::::::::::::::::::::::::::::::::::::::::::::::::::",
"::::::::::::::::::::::::::::::::::::::::::::::::::::::::::::::::::::::::::::::::::::::::::",
"::::::::::::::::::::::::::::::::::::::::::::::::::::::::::::::::::::::::::::::::::::::::::",
"::::::::::::::::::::::::::::::::::::::::::::::::::::::::::::::::::::::::::::::::::::::::::",
"::::::::::::::::::::::::::::::::::::::::::::::::::::::::::::::::::::::::::::::::::::::::::",
"::::::::::::::::::::::::::::::::::::::::::::::::::::::::::::::::::::::::::::::::::::::::::",
"::::::::::::::::::::::::::::::::::::::::::::::::::::::::::::::::::::::::::::::::::::::::::",
"::::::::::::::::::::::::::::::::::::::::::::::::::::::::::::::::::::::::::::::::::::::::::",
"::::::::::::::::::::::::::::::::::::::::::::::::::::::::::::::::::::::::::::::::::::::::::",
"::::::::::::::::::::::::::::::::::::::::::::::::::::::::::::::::::::::::::::::::::::::::::",
"::::::::::::::::::::::::::::::::::::::::::::::::::::::::::::::::::::::::::::::::::::::::::",
"::::::::::::::::::::::::::::::::::::::::::::::::::::::::::::::::::::::::::::::::::::::::::",
"::::::::::::::::::::::::::::::::::::::::::::::::::::::::::::::::::::::::::::::::::::::::::",
"::::::::::::::::::::::::::::::::::::::::::::::::::::::::::::::::::::::::::::::::::::::::::",
"::::::::::::::::::::::::::::::::::::::::::::::::::::::::::::::::::::::::::::::::::::::::::",
"::::::::::::::::::::::::::::::::::::::::::::::::::::::::::::::::::::::::::::::::::::::::::",
"::::::::::::::::::::::::::::::::::::::::::::::::::::::::::::::::::::::::::::::::::::::::::",
"::::::::::::::::::::::::::::::::::::::::::::::::::::::::::::::::::::::::::::::::::::::::::",
"::::::::::::::::::::::::::::::::::::::::::::::::::::::::::::::::::::::::::::::::::::::::::",
"::::::::::::::::::::::::::::::::::::::::::::::::::::::::::::::::::::::::::::::::::::::::::",
"::::::::::::::::::::::::::::::::::::::::::::::::::::::::::::::::::::::::::::::::::::::::::",
"::::::::::::::::::::::::::::::::::::::::::::::::::::::::::::::::::::::::::::::::::::::::::",
"::::::::::::::::::::::::::::::::::::::::::::::::::::::::::::::::::::::::::::::::::::::::::",
"::::::::::::::::::::::::::::::::::::::::::::::::::::::::::::::::::::::::::::::::::::::::::",
"::::::::::::::::::::::::::::::::::::::::::::::::::::::::::::::::::::::::::::::::::::::::::",
":::::::::::::::::::::::::::::::::::::::::::::::::::::::::::::::::::::::::**%::::::::::::::",
":::::::::::::::::::::::::::::::::::::::::::::::::::::::::::::::::::::::::.  ::::::::::::::",
":::::::::::::::::::::::::::::::::::::::::::::::::::::::::::::::::::::::::.  :::::-::::::::",
"::::::::::::::::::::::***-:::::::::::::::::::::::::::::::::::::::::-***::.  :::=**::::::::",
"::::::::::::::::::::::o  *:::::::::::::::::::::::::::::::::::::::::+  #::o  ::-  +::::::::",
"::::::::::::::::::::::o  -:::::::::::::::::::::::::::::::::::::::::#  *::   ::=  +::::::::",
"::::::::::::::::-##:::o  *::@@=::::::::::::::::::::::::::::::::::::&++###+O+###++@::::::::",
"::::::::::::::::#  @::o  -:-  o:::::::::::::::::::::::::::::::::::::::O  -::  o:::::::::::",
"::::::::::::::::=  @::o  ::=  o:::::::::::::::::::::::::::::::::::::::O  -::  o-::::::::::",
"::::::::::::::::*@@$@@@@+@+@#@#:::::::::::::::::::::::::::::::::::::::*+#+@@@@#:::::::::::",
":::::::::::::::::::O  *::o o:::::::::::::::::::::::::::::::::::::::::::::   ::::::::::::::",
":::::::::::::::::::O  *::  o:::::::::::::::::::::::::::::::::::::::::::::o  ::::::::::::::",
":::::::::::::::::::*@%+++$$*:::::::::::::::::::::::::::::::::::::::::::::*%$::::::::::::::",
"::::::::::::::::::::::o  =::::::::::::::::::::::::::::::::::::::::::::::::::::::::::::::::",
"::::::::::::::::::::::o  =::::::::::::::::::::::::::::::::::::::::::::::::::::::::::::::::",
"::::::::::::::::::::::***:::::::::::::::::::::::::::::::::::::::::::::::::::::::::::::::::",
"::::::::::::::::::::::::::::::::::::::::::::::::::::::::::::::::::::::::::::::::::::::::::",
"::::::::::::::::::::::::::::::::::::::::::::::::::::::::::::::::::::::::::::::::::::::::::",
"::::::::::::::::::::::::::::::::::::::::::::::::::::::::::::::::::::::::::::::::::::::::::",
"::::::::::::::::::::::::::::::::::::::::::::::::::::::::::::::::::::::::::::::::::::::::::",
"::::::::::::::::::::::::::::::::::::::::::::::::::::::::::::::::::::::::::::::::::::::::::",
"::::::::::::::::::::::::::::::::::::::::::::::::::::::::::::::::::::::::::::::::::::::::::"
};
