/* XPM */
static char *_53s_0_1_1__11674299587[] = {
/* columns rows colors chars-per-pixel */
"90 90 183 2 ",
"   c None",
".  c #010101",
"X  c #080706",
"o  c #090907",
"O  c #0E0C0B",
"+  c #180209",
"@  c #100E0C",
"#  c #14120E",
"$  c #151311",
"%  c #191513",
"&  c #1C1A14",
"*  c #1E1A1A",
"=  c #201C18",
"-  c #271D17",
";  c #26241C",
":  c #2A231D",
">  c #2B291F",
",  c #32251E",
"<  c #262222",
"1  c #2A2424",
"2  c #2D2A22",
"3  c #2E2828",
"4  c #332B24",
"5  c #332D2C",
"6  c #3C352D",
"7  c #3D392B",
"8  c #343126",
"9  c #3C3533",
"0  c #3F3838",
"q  c #690929",
"w  c #7A1539",
"e  c #423D2F",
"r  c #4D3A2E",
"t  c #522230",
"y  c #403737",
"u  c #403831",
"i  c #403838",
"p  c #4B3C39",
"a  c #503E3F",
"s  c #752438",
"d  c #454033",
"f  c #4B4635",
"g  c #4B423D",
"h  c #4C4839",
"j  c #534D3C",
"k  c #5B473C",
"l  c #5A543F",
"z  c #55503E",
"x  c #644B3C",
"c  c #523B42",
"v  c #6D3B4D",
"b  c #4E4642",
"n  c #544441",
"m  c #524943",
"M  c #5D4B43",
"N  c #5B4D48",
"B  c #5B4249",
"V  c #575341",
"C  c #5F5843",
"Z  c #5D544B",
"A  c #5B5641",
"S  c #61444E",
"D  c #624F46",
"F  c #62564C",
"G  c #625A4D",
"H  c #6B5449",
"J  c #765C4F",
"K  c #7C5E4C",
"L  c #725848",
"P  c #6F495A",
"I  c #674454",
"U  c #69634E",
"Y  c #64604C",
"T  c #71684F",
"R  c #6C6354",
"E  c #6E6953",
"W  c #7C6051",
"Q  c #726C53",
"!  c #726758",
"~  c #736A59",
"^  c #7A6F5D",
"/  c #7C735E",
"(  c #7A7256",
")  c #774C62",
"_  c #7C5964",
"`  c #7E7561",
"'  c #81555B",
"]  c #8F6D59",
"[  c #876755",
"{  c #847B5D",
"}  c #81705E",
"|  c #94705B",
" . c #9C755E",
".. c #875271",
"X. c #8F5579",
"o. c #B84070",
"O. c #896F60",
"+. c #827762",
"@. c #847C62",
"#. c #867E68",
"$. c #8A7C69",
"%. c #8A7E67",
"&. c #9F7669",
"*. c #A07860",
"=. c #A97D6B",
"-. c #C05978",
";. c #8B8366",
":. c #8D826A",
">. c #878165",
",. c #928A6A",
"<. c #948A69",
"1. c #9E946F",
"2. c #948D72",
"3. c #988C70",
"4. c #9C8772",
"5. c #9D9373",
"6. c #9D9578",
"7. c #BB8776",
"8. c #A19575",
"9. c #A49A75",
"0. c #A49B7B",
"q. c #AA9E7C",
"w. c #A99E76",
"e. c #B19E7F",
"r. c #B9987F",
"t. c #A98376",
"y. c #ABA17D",
"u. c #B4A87E",
"i. c #B3A67E",
"p. c #C1957C",
"a. c #985880",
"s. c #A06D83",
"d. c #A27084",
"f. c #AB8985",
"g. c #B49A8B",
"h. c #BF9492",
"j. c #ADA583",
"k. c #B3A581",
"l. c #B2AA85",
"z. c #B9AD83",
"x. c #B5AD89",
"c. c #BBAC8E",
"v. c #B7A58C",
"b. c #BDB48D",
"n. c #D08688",
"m. c #D6978F",
"M. c #D79A8F",
"N. c #CAAC89",
"B. c #C3B58C",
"V. c #C6B88D",
"C. c #CABC8F",
"Z. c #CFAD9A",
"A. c #C3B791",
"S. c #C1B990",
"D. c #CABF93",
"F. c #DEB896",
"G. c #D7A591",
"H. c #CDC294",
"J. c #D3C595",
"K. c #D2C799",
"L. c #D5C99A",
"P. c #DACC9B",
"I. c #DAC499",
"U. c #DFD09E",
"Y. c #E7C69F",
"T. c #E5CE9E",
"R. c #E2D29E",
"E. c #DFC6A0",
"W. c #DFD2A0",
"Q. c #E3D5A1",
"!. c #EBD3A3",
"~. c #E7D8A3",
"^. c #EBDBA5",
"/. c #EFE0AC",
"(. c #F0E0A8",
"). c #EEE2BC",
"_. c #EFE1B2",
"`. c #DCBED6",
"'. c #E2CFDC",
"]. c #EDE3C5",
"[. c #EAE4E3",
"{. c #E9E7F0",
"}. c #E8E8F8",
/* pixels */
"                                                                                                                                                                                    ",
"                                                                                                                                                                                    ",
"                                                                                                                                                                                    ",
"                                                                                                                                                                                    ",
"                                                                                                                                                                                    ",
"                                                                                                                                                                                    ",
"                                                                                                                                                                                    ",
"                                                                                                                                                                                    ",
"                                                                                                                                                                                    ",
"                                                                                                                                                                                    ",
"                                                                                                                                                                                    ",
"                                                                                                                                                                                    ",
"                                                                                                                                                                                    ",
"                                                                                                                                                                                    ",
"                                                                                                                                                                                    ",
"                                                                                                                                                                                    ",
"                                                                                                                                                                                    ",
"                                                                                                                                                                                    ",
"                                                                                                                                                                                    ",
"                                                                                                                                                                                    ",
"                                                                                                                                                                                    ",
"                                                                                                                                                                                    ",
"                                                                                                                                                                                    ",
"                                                                                                                                                                                    ",
"                    i i i i i i i i                                                                                   i i i i i 1 $ . .                                             ",
"                  i i i i i i i i i                                                                                   0 i i 0 i < $ . .                                             ",
"                  i i i i i i i 0 0                                                                                   0 i i i i < $ . .                                             ",
"            y i i 3.P.(.(.(.(.(.(.(.R b i                                                                       i i i l.S.S.b.S.,.U 6 4 X . .                                       ",
"            y i i 3.P.(.(.(.(.(.(.(.R g 0                                                                       0 0 0 l.S.b.S.S.,.G e 4 X . .                                       ",
"            0 i i 3.P.(.~.J.L.R.(.(.Z 6 3                                                                       0 0 0 l.S.b.v.v.$.F u 4 $ # @                                       ",
"            y i i 3.P.~.I.9.9.J.(.(.d & O                                                                       c 0 0 l.b.c.d.d._ B 9 6 5 5 5                                       ",
"            y i i 3.P.~.H.<.<.C.(.(.7 @ .                                                                       0 0 0 l.S.c.d.a.) B u u y i i                                       ",
"            y i i ,.U.R.H.;.<.>.{ ;.8 O                                                                       @ * < < G E / f.h.r.4.%.;.;.%.+.                                      ",
"            y i i 1.P.~.H.<.;.j > >                                                                         . . X o O = ; f g.I.I.J.C.H.H.F.q.y i                                   ",
"            y i 0 3.P.R.H.<.,.6 . X                                                                       . . . . . . X . , w.R.R.^.(.(.(.(.V.h b                                   ",
"            i i i 3.U.~.J.1.5.d @ @                                                                       @ @ O @ @ @ @ # > ;.u.C.P.(.(.(.(.H.R R G                                 ",
"            i i i 3.P.^.W.b.S.~ i i                         i i i i i i i i i i i                   . . X * u e u u u u e 5 @ . l 9.(.(.(.(.(.(.^.:.Z y 0                           ",
"            i i i 3.P.^.W.V.S.~ i i                         i i y i i y i i i i i                   . . X = u 6 u u u e 7 4 @ . l 9.(.(.(.(.(.(.(.:.Z i i                           ",
"              i i +.8.k.c.J.J.^ i i i                     F / +.+.+.+.+.+.+.+.+.+.~                 X . X = e p a S I S S a 1 % e T 3.y.~.(.(.(.(.t.' v v                           ",
"                  i 0 m / (.(.+.i i i i i             i i ! C.(.(.(.(.(.(.(././.(.:.N i i i 0 0 i i O . X = 6 a P X.a.a.X...c u : # X 7 P.(.(.(.(.n.-.o.o.                          ",
"                  i i m / (./.+.i i i i i             i i ~ C.(.(.(.(.(.(.(.(.(.(.:.N i 0 0 0 0 i i @ . . = u a P X.a.a.a.X.c u : # X 7 P.^.(.(.(.n.-.o.o.                          ",
"                        G / / 8.k.k.k.k.0./ i i i i i k.k.V.R.(.(.(.(.(.(.(.(.(.(.C.z.i.y.2.2.2.2.2.: X X = u a ) a.a.f.g.g.k.k.w.9.1.i.^.(.(.(.(.Y.F.G.g.m i                       ",
"                          m m q.U.R.U.U.B.%.i i 0 0 0 U.U.~.~.(.(.(.(.(.(.(.(.(.(.~.R.P.H.x.x.x.x.x.2 X X = u a P X.a.c.c.A.P.T.T.P.P.R.^.(.(.(.(.!.!.T.e.g y y                     ",
"                          i y q.R.P.U.U.B.:.m m m m m (.(.(.(.(.(.(.(.(.(.(.(.(.(.(.(.^.U.D.S.S.D.S.7 & & : 6 p I X.X.N.S.H.~.^.(.(.(.(.(._.(.(.(././.~.k.D m m                     ",
"                          i i ,.q.i.y.y.9.3.+.+.+.+.+.(.(.(.(.(.(.(.(.(.(.(.(.(.(.(.(.^.~.K.J.K.K.J.Q A h e : 5 c ) ) V.L.P.~./.(.(.(._.].].).(.(.(.(.!.C.%./ !                     ",
"                              i i i i i F 8.(./.(.(.(.(.(.(.(.(.(.(.(.(.(.(.(.(.(.(.(.(.(./.(.(./.(.(.(.J.( . X = u u P././.(.(.(.(.(.].{.}.[.(.(.(.(.(.(.(.R.k.i i                 ",
"                              i i i i i F 8.T.P.U.U.U.(.(.(.(.(.(.(.(.(.(.(.(.(.(.(.(.(.(.(.(.(.(.(.(.(.J.{ # % : u u H.U.R.(.(.(.(.(.).{.}.[.T.!.(.(.(.(.(.R.u.y y                 ",
"                                i i y y Z +.8.8.9.6.1.(.(.(.(.(.(.(.(.(.(.(.(.(.(.(.(.(.(.(.(.(.(.(.(.(.U.9.V h g u i ,.5.i.U.(.(.(.(.).{.}.'.m.m.Y.!.(.(.(.R.r.t t                 ",
"                                          i i i 0 i i (.(.(.(.(.(.(.(.(.(.(.(.(.(.(.(.(.(.(.(.(.(.(.(.(.^.P.b.y.` 0 i i i G V.(.(.(./.).{.}.`.o.o.M.Y.(.(.(.R.p.q q                 ",
"                                          i i 0 i i i (.(.(.(.(.(.(.(.(.(.(.(.(.(.(.(.(.(.(.(.(.(.(.(.(.~.U.b.j.` 0 i i 0 G V.(.(././.).{.}.`.o.o.G.Y.(.(./.R.p.q q                 ",
"                                          @ @ 8 / 6.0./.(.(././.(.(.(.(.(.(.(.(.(.(.(.(.(.(.(.(.(.(.(.(.L.;.2 V / V.V.V.V.b.V.H.P.Q.(./.).).Z.w w 7.Y.^.~.H.b.;.+ +                 ",
"                                          . . 4 >.b.b./.(.(./._.(.(.(.(.(.(.(.(.(.(.(.(.(.(.(.(.(.(.(.(.K.( o 8 >.R.~.~.~.U.H.b.L.W.(./.(./.N.q q 7.F.(.U.S.x.` . .                 ",
"                                          . . : ;.b.H.^.~.^.^.W.(.(.(.(.(.(.(.(.(.(.(.(.(.(.(.(.(.(.(.(.J.>.& 7 { J.J.H.H.C.H.C.L.W.~.~.~.~.N.s s t.N.H.V.y.5.E . .                 ",
"                                          . . > ;.S.b.L.K.K.L.L.U.(.(.(.(.(.(.(.(.(.(.(.(.(.(.(.(.(.(.(.R.u./ E Q +.+.C l Q V.U.P.L.K.K.K.K.B.=.&.] / / U h d 8                     ",
"                                          . . > ;.S.S.b.b.S.b.S.K.W.(.(.(.(.(.(.(.(.(.(.(.(.(.(.(.(.(.(.^.P.b.y.` 0 0 X . > u.(.W.K.b.b.b.S.b.b.b.( m 0 1 . . .                     ",
"                                          . . > ;.b.S.S.b.b.S.S.H.P.U.U.Q.Q.W.Q.Q.W.Q.W.Q.(.(.(.(.(.~.Q.P.b.6.;.G 3 2 7 d l y.K.x.6.,.;.:.:.;.;.;.E m 0 < . .                       ",
"                                          . . > >.S.S.S.S.S.S.S.H.H.K.K.K.K.K.K.K.K.K.L.W._.(.(././.W.L.S.j.~ Y i & % / <.<.w.u.;.T h h h h h h h j                                 ",
"                                          . . : >.b.b.S.S.S.b.S.S.S.S.S.b.b.b.S.b.b.b.H.H./././.(./.H.b.j.` 0 5 * . . H.^.P.y.;.A > . . . . . . .                                   ",
"                                          % @ , / j.j.b.S.S.S.S.S.S.b.S.l.j.l.l.l.x.b.H.H.^.^./.Q.~.b.j.6.` 0 5 * . . u.J.V.1.{ V 2 . . . . . . .                                   ",
"                                    i i g L ] L > # $ S.S.b.S.S.S.S.b.l.b b b b b :.l.b.b.H.S.S.b.H.R m b c 0 5 * . . & & ; 9 g g                                                   ",
"                                    i y k L  .[ ; . . b.S.S.S.b.b.b.b.j.0 0 0 0 0 >.l.b.S.S.b.S.b.b.G g i i i 3 * . . . . O 3 i i                                                   ",
"                                    i y b K  .K > . . H.H.D.S.S.b.j.0.6.0 0 0 5 5 ` j.b.S.S.b.x.y.0.Z m m k k p 3 O O X . o 3 i                                                     ",
"                                    i y n J *.K : . . (./.P.D.S.6.R m m 0 0 3 O o E j.b.b.S.x.:.m m ^ ] | | | [ D 5 9                                                               ",
"                                    i i g J *.K : . . (./.W.H.S.2.Z 0 0 0 0 1 o . U 0.S.S.S.l.#.0 i [  . . .&.] L i i                                                               ",
"                                      i p k x r % . . <.<.9.V.K.z.,.+.^ i i 1 X . R 0.S.H.K.b.>.1 1 H K W W W J D i i                                                               ",
"                                          4 , - @ . . f f Q V.R.L.B.k.q.i i 1 X . U y.S.H.R.H.{ $ $ p n M M M M m                                                                   ",
"                                          . . . . . . . . d u.~.~.~.R.J.i i 1 X . U 6.b.H.~.H.{ . . 5 9 i i i i                                                                     ",
"                                            . . . . . . . 7 <.u.u.u.y.1.i i 3 X . Y >.2.1.i.1.U . . 5 0 i i i i                                                                     ",
"                                                            # $ $ # & & i 0 0     # # # # # # @                                                                                     ",
"                                                            . . . . . X i 0 0     . . . . . . .                                                                                     ",
"                                                            . . . . . X i i         . . . . .                                                                                       ",
"                                                                                                                                                                                    ",
"                                                                                                                                                                                    ",
"                                                                                                                                                                                    ",
"                                                                                                                                                                                    ",
"                                                                                                                                                                                    ",
"                                                                                                                                                                                    ",
"                                                                                                                                                                                    ",
"                                                                                                                                                                                    ",
"                                                                                                                                                                                    ",
"                                                                                                                                                                                    ",
"                                                                                                                                                                                    ",
"                                                                                                                                                                                    ",
"                                                                                                                                                                                    ",
"                                                                                                                                                                                    ",
"                                                                                                                                                                                    ",
"                                                                                                                                                                                    ",
"                                                                                                                                                                                    ",
"                                                                                                                                                                                    ",
"                                                                                                                                                                                    "
};
