/* XPM */
static char *Untitled_7__removebg_preview1674299643[] = {
/* columns rows colors chars-per-pixel */
"90 90 139 2 ",
"   c None",
".  c #000000",
"X  c #080707",
"o  c gray5",
"O  c #110E0D",
"+  c #141313",
"@  c #181613",
"#  c #1E1C15",
"$  c #1F1E1E",
"%  c #201C1A",
"&  c #24221A",
"*  c #28241E",
"=  c #252323",
"-  c #2A2524",
";  c #2E2B25",
":  c #2C2C2C",
">  c #302E24",
",  c #312B2B",
"<  c #3C2D24",
"1  c #363327",
"2  c #39322B",
"3  c #3C2D30",
"4  c #353535",
"5  c #3A3332",
"6  c #3C3C3C",
"7  c #680828",
"8  c #46352A",
"9  c #542030",
"0  c #403830",
"q  c #403838",
"w  c #484536",
"e  c #4C413D",
"r  c #4E4A39",
"t  c #564D3F",
"y  c #6D3B4D",
"u  c #444444",
"i  c #4A4A4A",
"p  c #554143",
"a  c #534B44",
"s  c #5B4249",
"d  c #5B5245",
"f  c #55544F",
"g  c #5D554A",
"h  c #575050",
"j  c #5C5B5B",
"k  c #595555",
"l  c #61444E",
"z  c #645047",
"x  c #69554A",
"c  c #605A4B",
"v  c #70584C",
"b  c #785A48",
"n  c #6C4858",
"m  c #605A5A",
"M  c #676455",
"N  c #6C6453",
"B  c #67605B",
"V  c #7C6051",
"C  c #787054",
"Z  c #78735A",
"A  c #6D6767",
"S  c #6C6C6C",
"D  c #636262",
"F  c #7C7461",
"G  c #7B7A7A",
"H  c #894A4F",
"J  c #8C6954",
"K  c #80775B",
"L  c #94705B",
"P  c #9A745E",
"I  c #82506C",
"U  c #8D5476",
"Y  c #B84070",
"T  c #8A6462",
"R  c #827762",
"E  c #817964",
"W  c #8B7967",
"Q  c #926078",
"!  c #837E7D",
"~  c #A07860",
"^  c #C6687E",
"/  c #928A6B",
"(  c #9C936F",
")  c #988C70",
"_  c #998F7A",
"`  c #9C9472",
"'  c #BD8F78",
"]  c #A39A76",
"[  c #AD9679",
"{  c #A1987A",
"}  c #A89D7A",
"|  c #B5987B",
" . c #BC9B7F",
".. c #ACA17D",
"X. c #B4A87E",
"o. c #985880",
"O. c #9D6482",
"+. c #928D8B",
"@. c #9A9696",
"#. c gray60",
"$. c #AC8888",
"%. c #A39B80",
"&. c #A19F9C",
"*. c #B3A380",
"=. c #B1A885",
"-. c #BAAE84",
";. c #B6A08C",
":. c #BCAC8D",
">. c gray66",
",. c #A6A2A2",
"<. c #B1AEAE",
"1. c #B7B7B7",
"2. c #D4908C",
"3. c #CEAA88",
"4. c #C0B487",
"5. c #C2B58A",
"6. c #C6B98C",
"7. c #CFAD99",
"8. c #C0B890",
"9. c #E2B89A",
"0. c #C09CA8",
"q. c #CCC296",
"w. c #D2C494",
"e. c #D2C799",
"r. c #D9CC9B",
"t. c #DED19F",
"y. c #E6C29E",
"u. c #E9CCA1",
"i. c #E4D6A2",
"p. c #EADBA5",
"a. c #EFE1AD",
"s. c #F0E0A8",
"d. c #EFE1B2",
"f. c #D6A9C5",
"g. c #C7C5C5",
"h. c #E0C7CF",
"j. c #EBE5DA",
"k. c #E8E8F8",
"l. c gray96",
/* pixels */
"                                                                                                                                                                                    ",
"                                                                                                                                                                                    ",
"                                                                                                                                                                                    ",
"                                                                                                                                                                                    ",
"                                                                                                                                                                                    ",
"                                                                                                                                                                                    ",
"                                                                                                                                                                                    ",
"                                                                                                                                                                                    ",
"                                                                                                                                                                                    ",
"                                                                                                                                                                                    ",
"                                                                                                                                                                                    ",
"                                                                                                                                                                                    ",
"                                                                                                                                                                                    ",
"                                                                                                                                                                                    ",
"                                                                                                                                                                                    ",
"                                                                                                                                                                                    ",
"                                                                                                                                                                                    ",
"                                                                                                                                                                                    ",
"                                                                                                                                                                                    ",
"                                                                                                                                                                                    ",
"                                                                                                                                        h q q q q q q q                             ",
"                                                                                                                                      l.h q q q q q q q                             ",
"                                                                                                                                    <.<.W R K R R R R R <.<.                        ",
"                                                  $ . + q q q q q                                                                 ! q q r.s.s.s.s.s.s.s.a q h                       ",
"                                                  $ . O q q q 5 q                                                                 ! 6 q r.s.s.s.s.s.s.s.a q h                       ",
"                                            S = $ 1 1 d =.=.=.=.=.B h A                                                           D X X w.s.w.( ` 6.s.s.d q h                       ",
"                                            j . . 1 5 c 8.8.8.8.8.a 5 h                                                           j . . w.s.r./ / :.s.s.a q h                       ",
"                                            B o O 2 0 g ;.;.:.8.8.a q h                                                           G 6 6 X.X.} / / 4.s.s.d q h                       ",
"                                            ! 6 q 0 0 p o.o.$.8.:.a 6 h                                                                 $ . & / / 4.s.s.d q h                       ",
"                                            ! 6 q 0 0 p o.o.$.8.:.p q h                                                                 $ . & / / -.s.s.a q h                       ",
"                                        ! O._ ..X.....X.7.7.W w r & @ = j j >.                                                            #.! g g } s.s.d 6 h                       ",
"                                        q q ..a.s.s.s.s.s.s.C . . . . . . . G                                                               g.q q ) s.s.a q h                       ",
"                                        q q X.s.s.s.s.s.s.s.C . . . . . . . G                                                               g.6 q ) s.s.a 6 f                       ",
"                                  q q N s.s.s.s.s.s.s.X.. . % 0 0 0 0 0 0 0 % . . 1.                    q q q q q q q q                 h q a / / 4.s.s.d 0 f                       ",
"                                  q q N s.s.s.s.s.s.s.X.. . % 0 6 0 0 0 0 0 % . . 1.                    q q q q q q q q                 h q a / / 4.s.s.f 6 k                       ",
"                                  y y T s.s.s.s.s.] / K @ @ 3 l l l l s 5 0 % . . ! <.<.<.<.<.<.<.<.<.<.R R R R R R R R #.#.            h q g ] ] } ..} G O.+.                      ",
"                                  Y Y ^ s.s.s.s.s.# . O 2 0 n o.o.o.o.U 0 0 & . . , 6 q q q 5 6 q q q q s.s.s.s.s.s.s.s.. . 6           h q c 8.5.E q q                             ",
"                                  Y Y ^ s.s.s.s.s.% . O w 5 n Q o.o.o.U 0 0 % . . : q q q q 0 6 q q q q s.s.s.s.s.s.s.s.. . 6           h q m 8.:.R q q                             ",
"                              A A 9.9.y.s.s.s.s.s.X.X.X.6.4.:.;.;.O.o.U 0 0 % . . Z { { { ` { { { -.6.5.s.s.s.s.s.s.s.s.X.X.) 6 6 k A S / { / g c +.g.                              ",
"                            ! q q s.s.s.s.s.s.s.s.s.s.s.s.a.r.-.6.O.Q U 5 0 % . X / 8.8.:.q.8.8.:.p.a.a.s.s.s.s.s.s.s.s.s.s.X.. . - q q =.:.{ q q #.                                ",
"                            ! d d s.s.s.s.s.a.d.d.s.s.s.s.s.t.q.6.Q U I 1 2 * + @ / q.8.q.8.q.8.q.i.s.s.s.s.s.s.s.s.s.s.s.s.4.@ # 0 i r ` =.%.h f >.                                ",
"                        q q ..s.s.s.s.s.s.s.j.k.k.d.s.s.s.s.s.s.s.d 0 2 . . c q.-.s.s.a.s.s.s.s.s.s.s.s.s.s.s.s.s.s.s.s.s.s.i.6.8.:.8.8.a 6 A                                       ",
"                        q q ..s.s.s.s.s.s.s.j.k.k.d.s.s.s.s.s.s.s.d 0 , X . c :.8.t.s.s.s.s.s.s.s.s.s.s.s.s.s.s.s.s.s.s.s.s.i.:.:.q.8.8.a 6 A                                       ",
"                        9 9 | s.s.s.s.u.2.2.h.k.k.d.s.s.s.s.6.) ) e 0 q c c ` r.r.s.s.s.s.s.s.s.s.s.s.s.s.s.s.s.s.s.s.s.s.a.r.E E N c c +.#.                                        ",
"                      0.7 7 ' s.s.s.s.9.Y Y f.k.k.d.s.s.s.s.) q q q q a :.6.r.s.s.s.s.s.s.s.s.s.s.s.s.s.s.s.s.s.s.s.s.s.s.s.6.6 q @ . .                                             ",
"                        7 7 ' s.s.s.s.9.Y Y f.k.k.d.s.s.s.s.) q q q q a q.:.t.s.s.s.s.s.s.s.s.s.s.s.s.s.s.s.s.s.s.s.s.s.s.s.4.6 q @ . .                                             ",
"                        . . Z 8.8.s.s.3.7 7 ' s.s.s.a.i.6.:.r.s.s.s.s.w.. . C s.s.s.s.s.s.s.s.s.s.s.s.s.s.s.s.s.s.s.s.s.s.s.i.6.8.w . .                                             ",
"                        . . Z 8.8.s.s.3.7 7 ' s.s.s.s.i.8.8.t.s.s.s.s.w.. . C s.s.s.s.s.s.s.s.s.s.s.s.s.s.s.s.s.s.s.s.s.s.s.p.:.8.w . .                                             ",
"                        j j M Z Z ..*.[ H H -.t.t.t.t.t.e.e.X./ ) } *.{ w w ( s.s.s.s.s.s.s.s.s.s.s.s.s.s.s.s.s.s.s.s.s.t.t.r.:.8.w . .                                             ",
"                            j . . q 5 c 8.8.:.q.:.q.:.q.s.s.C . . 4 5 a 8.8.r.s.s.s.s.s.s.s.s.s.s.s.s.s.s.s.s.s.s.s.s.s.:.q.8.8.8.w . .                                             ",
"                            j . . q q c 8.:.8.:.8.8.8.q.s.s.C . . 5 6 p 8.8.r.p.s.s.s.s.s.s.a.a.s.s.s.s.s.s.s.s.s.s.s.s.8.8.8.8.8.w . X                                             ",
"                                      &., 1 > > > > 1 r ] ....X.X.; O # c c } s.s.s.s.s.q.e.q.q.q.q.q.q.q.q.q.e.q.q.q.q.8.8.8.8.8.{ / / f 6 S                                       ",
"                                        . . . . . . . & / / 5.a.s.# . X q q ` a.s.s.s.p.8.8.8.:.:.8.8.8.8.8.:.8.8.:.q.:.8.8.8.8.8.8.:.8.@ . 6                                       ",
"                                        = $ $ $ $ $ = > Z / ..w.w.# . X 0 5 ) p.p.p.p.t.8.8.=.*.........=.=.=.=.=.=.=.X.8.8.8.8.8.8.8.8.1 # 6                                       ",
"                                                        6 q & . . . . X 6 6 E 8.8.8.:.q.8.8.Z . . . . . 6 0 q q 6 6 6 5 8.8.8.8.8.8.:.:.p.s.X.. .                                   ",
"                                                        5 0 % . . . . X 0 6 E 8.8.8.8.:.8.8.Z . . . . . 6 6 q q 0 6 6 6 8.8.8.8.8.8.q.6.p.s.X.. .                                   ",
"                                                          h j % % % % - R R _ 8.8.) F F c c w % % % % % q q a v v v b v F E E E F %.8.8.p.s.X.. . G                                 ",
"                                                            h q q q q a 8.8.8.8.8.c q 4 . . @ q q q q q q 5 z ~ ~ ~ ~ ~ 0 q q q 6 / 8.8.p.s.X.. . G                                 ",
"                                                              q q q q a 8.8.8.8.8.c 5 4 . . @ q q q q q q q z ~ ~ ~ ~ ~ 6 6 q q 0 ) :.6.p.s.-.. .                                   ",
"                                                            6 X X -.r.e.8.8.N @ @ 5 q e J J v q q + X X L L P ~ ~ 8 O O @ + 6 X X / a.p.s.s.X.. .                                   ",
"                                                              . . q.s.s.8.:.c X . , q p ~ ~ V 5 q O . . ~ ~ ~ ~ P 8 . . . . : . . / s.s.s.s.X.. .                                   ",
"                                                              4 4 / X.X./ / M 6 6 , , 5 b b x A A = O + b b b b b q 6 6 . . - O + K X.X.X.X./ 6 6                                   ",
"                                                                  & . . . . j X X 6 . . . . j o o m q q . . . . . i . . . . $ 5 q @ . . . . 4                                       ",
"                                                                  $ . . . . i . . 6 . . . . h . X j q q . . . . . u . . . . $ 5 q @ . . . . 4                                       ",
"                                                                              . . 6 i i i i u . . 6 i i i u u u u $ . . . . . 4 4 6 6 4                                             ",
"                                                                                  . . . . . . . . . . . . . . . . . . . . . . . . .                                                 ",
"                                                                                        . . . . . . . . . . . . . . . . .                                                           ",
"                                                                                                                                                                                    ",
"                                                                                                                                                                                    ",
"                                                                                                                                                                                    ",
"                                                                                                                                                                                    ",
"                                                                                                                                                                                    ",
"                                                                                                                                                                                    ",
"                                                                                                                                                                                    ",
"                                                                                                                                                                                    ",
"                                                                                                                                                                                    ",
"                                                                                                                                                                                    ",
"                                                                                                                                                                                    ",
"                                                                                                                                                                                    ",
"                                                                                                                                                                                    ",
"                                                                                                                                                                                    ",
"                                                                                                                                                                                    ",
"                                                                                                                                                                                    ",
"                                                                                                                                                                                    ",
"                                                                                                                                                                                    ",
"                                                                                                                                                                                    ",
"                                                                                                                                                                                    ",
"                                                                                                                                                                                    ",
"                                                                                                                                                                                    ",
"                                                                                                                                                                                    "
};
