/* XPM */
static char *portal_31674398347[] = {
/* columns rows colors chars-per-pixel */
"90 90 149 2 ",
"   c #000000",
".  c #0F160C",
"X  c #10170D",
"o  c #10190D",
"O  c #141D10",
"+  c #182313",
"@  c #1D2916",
"#  c #202F19",
"$  c #0E1C2B",
"%  c #0D2133",
"&  c #112637",
"*  c #122A3E",
"=  c #293B20",
"-  c #2C4123",
";  c #0A2B43",
":  c #0A2F49",
">  c #142E44",
",  c #0B314B",
"<  c #153248",
"1  c #0D3552",
"2  c #0C3B5C",
"3  c #123D5D",
"4  c #19405E",
"5  c #0C4165",
"6  c #0C456B",
"7  c #0D486E",
"8  c #144466",
"9  c #1B4362",
"0  c #16466A",
"q  c #16496C",
"w  c #0D4970",
"e  c #104D76",
"r  c #1F4E71",
"t  c #114F78",
"y  c #12517B",
"u  c #5D8549",
"i  c #638D4D",
"p  c #66934F",
"a  c #6C9B53",
"s  c #6DA558",
"d  c #6FA859",
"f  c #73A65A",
"g  c #74AC5C",
"h  c #7AAF5E",
"j  c #77B05E",
"k  c #78B15F",
"l  c #7CB561",
"z  c #7FB863",
"x  c #7CB76E",
"c  c #7FB96E",
"v  c #69A57C",
"b  c #6EB07F",
"n  c #76B375",
"m  c #7BB673",
"M  c #7EB872",
"N  c #72B279",
"B  c #7BB77B",
"V  c #82BB65",
"C  c #80BA69",
"Z  c #165681",
"A  c #1C5780",
"S  c #165A87",
"D  c #185986",
"F  c #175B89",
"G  c #1A5C8A",
"H  c #1F608D",
"J  c #1D6393",
"K  c #1F6798",
"L  c #1F689A",
"P  c #21638F",
"I  c #226593",
"U  c #266894",
"Y  c #286A96",
"T  c #216B9D",
"R  c #2B6D99",
"E  c #2D709B",
"W  c #226EA1",
"Q  c #2471A5",
"!  c #2873A6",
"~  c #2675AA",
"^  c #2977AD",
"/  c #2778AE",
"(  c #2A79AF",
")  c #3274A1",
"_  c #3578A3",
"`  c #387EAB",
"'  c #2779B0",
"]  c #2A7CB3",
"[  c #2B7FB8",
"{  c #3C80AA",
"}  c #2E84BE",
"|  c #3A8BB3",
" . c #3084BD",
".. c #659C80",
"X. c #619D92",
"o. c #5FA794",
"O. c #57A39F",
"+. c #6AAD84",
"@. c #67A58D",
"#. c #67AC89",
"$. c #77B486",
"%. c #79B581",
"&. c #76B38C",
"*. c #60A892",
"=. c #6BAB94",
"-. c #70AF9E",
";. c #71B190",
":. c #71B09B",
">. c #4286B2",
",. c #4589B3",
"<. c #4699B5",
"1. c #489AB3",
"2. c #4C90BA",
"3. c #4598B9",
"4. c #519FB3",
"5. c #5195BF",
"6. c #51A0A6",
"7. c #55A1AB",
"8. c #6EAEA5",
"9. c #65A5AA",
"0. c #67ABAB",
"q. c #6BADAE",
"w. c #60A6B4",
"e. c #67ABB2",
"r. c #69ABB4",
"t. c #66A9BE",
"y. c #68ABB8",
"u. c #2F86C1",
"i. c #3087C3",
"p. c #3189C5",
"a. c #3B8DC3",
"s. c #348FCD",
"d. c #3A92C6",
"f. c #3690CD",
"g. c #3A92CD",
"h. c #4893C4",
"j. c #4597CE",
"k. c #4897C9",
"l. c #4698CE",
"z. c #4A9ACD",
"x. c #5196C0",
"c. c #559AC3",
"v. c #529ECD",
"b. c #5A9FC8",
"n. c #5CA4C5",
"m. c #56A0CE",
"M. c #5CA3CE",
"N. c #64A8C6",
"B. c #61A6CF",
/* pixels */
"V V V V V V V V V V V V V V V V V V V V V V V V V V V V V V V V V V C C %.B.B.B.B.B.B.B.B.B.B.B.B.B.B.N.B.B V C C V V V V V V V V V V V V V V V V V V V V V V V V V V V V V V V V V ",
"V V V V V V V V V V V V V V V V V V V V V V V V V V V V V V V V V C C M $.B.M.B.B.B.B.M.M.B.B.M.B.M.B.M.M.$.C C C V V V V V V V V V V V V V V V V V V V V V V V V V V V V V V V V V ",
"V V V V V V V V V V V V V V V V V V V V V V V V V V V V V V V V V -.N.N.n.g.g.g.f.f.f.f.f.g.g.f.g.g.g.s.g.n.B.N.+.V V V V V V V V V V V V V V V V V V V V V V V V V V V V V V V V V ",
"V V V V V V V V V V V V V V V V V V V V V V V V V V V V V V V V V -.B.B.m.s.s.s.s.s.s.s.s.s.s.s.s.s.s.s.s.m.B.B...C V V V V V V V V V V V V V V V V V V V V V V V V V V V V V V V V ",
"V V V V V V V V V V V V V V V V V V V V V V V V V V V V V C <.g.d.v.B.B.x.G G G G G G G G G G F G K p.s.s.g.s.g.c.B.N.r.C V V V V V V V V V V V V V V V V V V V V V V V V V V V V V ",
"V V V V V V V V V V V V V V V V V V V V V V V V V V V V C x 3.f.s.z.B.B.5.D D D D D D D S D S D D J p.s.s.s.s.s.z.B.B.y.C V V V V V V V V V V V V V V V V V V V V V V V V V V V V V ",
"V V V V V V V V V V V V V V V V V V V V V V V V V V n 1.<.<.v.m.m.>.R R U G D D D D D D S D S D D D J J J J K J ] j.g.k.y.y.e.C V V V V V V V V V V V V V V V V V V V V V V V V V V ",
"V V V V V V V V V V V V V V V V V V V V V V V V V V N d.s.f.b.B.B.` S S S D D D D D D D D D F F D D S D D D D D ~ s.s.j.B.B.B.B V V V V V V V V V V V V V V V V V V V V V V V V V V ",
"V V V V V V V V V V V V V V V V V V V V V V V V V V N d.s.f.b.B.B.{ S D D D D D e e e e e e e w e e D D D D D D ~ s.s.g.B.B.B.m V V V V V V V V V V V V V V V V V V V V V V V V V V ",
"V V V V V V V V V V V V V V V V V V V V V V V V V V N d.s.f.M.B.B.{ D D D S D Z w w w w w w w w w w D D D D D D ~ s.s.j.B.B.N.B V C V V V V V V V V V V V V V V V V V V V V V V V V ",
"V V V V V V V V V V V V V V V V V V V V V V V +.6.6.7.v.v.v.` _ _ R D D D e e e w w w L ~ ~ J w w w e e e Z D D J T W ^ j.z.z.e.8.8.B V V V V V V V V V V V V V V V V V V V V V V V ",
"V V V V V V V V V V V V V V V V V V V V V V V *.s.s.g.M.B.M.Y D S D D D Z w w w w w w ' s.s.Q 7 w w w w w Z D D D D D I s.s.g.m.B.B.&.V V V V V V V V V V V V V V V V V V V V V V V ",
"V V V V V V V V V V V V V V V V V V V V V V V *.s.s.g.B.B.M.U D D D D D Z q w e L W W W W W J 7 w w w w w Z D D D D D J p.s.f.M.B.B.&.V V V V V V V V V V V V V V V V V V V V V V V ",
"V V V V V V V V V V V V V V V V V V V V V V V *.s.s.g.M.B.M.Y D D D D D Z w w y u.s.s.J w w w w w w w w 7 Z D D D D D J s.s.s.M.B.B.&.V V V V V V V V V V V V V V V V V V V V V V V ",
"V V V V V V V V V V V V V V V V V V V V #.*.o.4.z.z.z.,.>.>.P D D D D D Z w w e W Q Q y 2 2 5 w w w w w w Z D D D D D J ~ ^ ( z.z.v.0.=.@.v l V V V V V V V V V V V V V V V V V V V ",
"V V V V V V V V V V V V V V V V V V V V 1.s.s.z.B.B.c.H D D D D D D D D y w w w w w w 1 ; ; 1 w w w 7 w w Z D D D D D D D D D u.s.s.v.B.B.9.l V V V V V V V V V V V V V V V V V V V ",
"V V V V V V V V V V V V V V V V V V V V 1.f.f.l.B.B.c.H D D D D D J T T J w w w 7 w 7 1 ; ; 8 H G J J J J y Z y S S D S D D G  .f.s.v.B.B.e.h V V V V V V V V V V V V V V V V V V V ",
"V V V V V V V V V V V V V V V V V V V V 1.f.f.z.B.B.c.H D D D D D ' s.s.[ w w w w w w 1 ; ; A f.s.s.s.p.s.S 7 w t S D D D D G i.s.s.v.B.B.e.V V V V V V V V V V V V V V V V V V V V ",
"V V V V V V V V V V V V V V V V V V V V <.s.f.l.B.B.c.H D D I T K [ s.s.[ e w 6 5 5 5 0 0 0 A ( ^ / [ [ } K F F S S S D D D G  .s.s.v.B.B.q.V V V V V V V V V V V V V V V V V V V V ",
"V V V V V V V V V V V V V V V V V V V V <.f.f.l.B.B.c.H D G i.s.s.s.s.s.[ w w 6 : ; ; Q s.s.T ; ; : 6 w w } f.f.Q F S D D D D i.s.s.v.B.B.r.V V V V V V V V V V V V V V V V V V V V ",
"V V V V V V V V V V V V V V V V V V V V 1.f.s.l.B.B.c.H D G i.s.s.i.u.u.' e w 6 : ; ; I  . .I ; ; , 6 w w / u.u.~ D D D D D G i.s.s.v.B.B.q.V V V V V V V V V V V V V V V V V V V V ",
"V V V V V V V V V V V V V V V V V V V V 1.f.f.l.B.B.c.P D D } s.s.W w w 7 w w 6 : ; ; ; ; ; ; ; ; : 6 w w w 7 w t D D D D D G  .s.s.v.B.B.q.V V V V V V V V V V V V V V V V V V V V ",
"V V V V V V V V V V V V V V V V V V V V 1.g.f.l.b.b.5.I D G } s.s.K w w w w w 6 : ; ; ; ; ; ; ; ; : 7 7 w w w w t D D D D D G [ p.p.v.M.M.e.M M c V V V V V V V V V V V V V V V V V ",
"V V V V V V V V V V V V V V V V V V V V r.M.M.,.H G G D D G u.s.s.W w w w w w 6 : ; ; ; ; ; ; ; ; : 6 w w 7 w w Z D D D D D D D G D ] f.f.z.B.B.r.V V V V V V V V V V V V V V V V V ",
"V V V V V V V V V V V V V V V V V V V V y.M.B.,.S S S S D G i.s.s.W w w w w w 6 : ; ; ; ; ; ; ; ; : w w w w w w t D S S S D D D D D ] s.s.l.B.B.y.V V V V V V V V V V V V V V V V V ",
"V V V V V V V V V V V V V V V V V | f.f.m.B.B.,.S S D D D G u.s.s.W w w w w w 6 : ; ; ; ; ; ; ; ; : 6 w w w w w w w w e Z D D D D D ] s.s.j.B.B.N.V V V V V V V V V V V V V V V V V ",
"V V V V V V V V V V V V V V V V z | f.f.m.B.B.,.S A D G D G u.s.s.T w w w w w 5 : ; ; ; ; ; ; ; ; : w w w e e w w w w e D D D D D D ] s.s.j.B.B.y.V V V V V V V V V V V V V V V V V ",
"V V V V V V V V V V V V V V V V z | s.f.m.B.B.,.S S J  .i.i.s.s.s.T w w w w w 6 : ; ; % % $ % ; ; 3 [ } } } } } I w w e D D D D D D ] s.s.l.B.B.t.V V V V V V V V V V V V V V V V V ",
"V V V V V V V V V V V V V V V V z | s.s.m.M.B.,.S D J s.s.s.s.s.s.T w w w w w 6 : ; ; % $ $ % ; ; 3 p.s.s.s.s.s.W w 7 e Z D D D D D ' s.s.l.B.B.t.V V V V V V V V V V V V V V V V V ",
"V V V V V V V V V V V V V V V V l | s.s.m.B.B.,.D D I p.s.s.s.s.s.K w w 5 : , : ; ; ; % $ $ 9 ^ ( W q 0 0 Z F F Q [ [ ~ G D D D D D ] s.s.z.B.B.t.V V V V V V V V V V V V V V V V V ",
"V V V V V V V V V V V V V V V V l | s.s.m.B.B.,.D D I p.s.s.s.s.s.T w w 6 ; ; ; ; ; ; % $ $ r f.g.[ 1 ; ; 5 w w Q s.s.} D D D D D D ] s.s.l.B.B.t.V V V V V V V V V V V V V V V V V ",
"V V V V V V V V V V V V V V V V l | s.s.m.B.B.,.D D D T W W p.s.s.T w w 5 ; ; ; % % % $ $ $ > 4 4 3 : ; ; 5 7 w Q s.s.} G D D D D D ] s.s.j.B.B.t.V V V V V V V V V V V V V V V V V ",
"V V V V V V V V V V V V V V V V C | s.s.m.B.B.,.D D D D S G u.s.s.T w w 5 ; ; ; $ $ $ $ $ $ $ $ $ $ & ; ; 5 w w W s.s.[ F S D D D D ' s.s.l.B.B.N.V V V V V V V V V V V V V V V V V ",
"V V V V V V V V V V V V V V V V C | s.s.m.B.B.,.D D D D D G u.s.s.W w w 5 ; ; ; $ $ $ $ $ $ $ $ $ $ ; ; ; 5 w w S K K W ] ' ' G D D ] s.s.j.B.B.N.V V V V V V V V V V V V V V V V V ",
"V V V V V V V V V V V V V V V V C | s.s.m.B.B.,.D D D D D G u.s.s.W w w 5 ; ; ; $ $ $ $ $ $ $ $ $ $ * ; ; 5 w 7 w w w S s.s.s.J D D ] s.s.j.B.B.t.V V V V V V V V V V V V V V V V V ",
"V V V V V V V V V V V V V V V V V | s.s.m.B.B.,.D D D D D D I T T W T W F : ; % $ $ $ $ $ $ $ $ $ $ ; ; ; 5 w w w w w S s.s.s.J D G ' s.s.j.B.B.t.V V V V V V V V V V V V V V V V V ",
"V V V V V V V V V V V V V V V V V | f.f.m.B.B.,.D D D D D Z e w w Q s.s.' : ; ; $ $ $ $ $ $ $ $ $ $ ; ; ; 5 w w w w w S s.s.p.J G D ' s.s.j.B.B.t.V V V V V V V V V V V V V V V V V ",
"V V V V V V V V V V V V V V V V V | s.s.v.B.B.,.D D D D D D e 7 w W s.s.u.Z Z r & $ $ $ $ $ $ $ $ % ; ; ; 5 w w w w w S s.s.s.J D D ' s.s.j.B.B.t.V V V V V V V V V V V V V V V V V ",
"V V V V V V V V V V V V V V V V C | s.s.m.B.B.,.D D D D D D e w w Q s.s.s.s.s. .* $ $ $ $ $ $ $ $ $ ; ; ; 5 w w w w w D s.s.p.J D D [ s.s.j.B.B.t.V V V V V V V V V V V V V V V V V ",
"V V V V V V V V V V V V V V V V V | s.s.v.B.B.,.D D D D D D w w w J ] ] ( ! ! R & $ $ $ $ $ $ $ $ $ ; ; ; 5 w w w w w D s.s.s.J D D ' s.s.j.B.B.t.V V V V V V V V V V V V V V V V V ",
"V V V V V V V V V V V V V V V V V | s.f.m.B.B.,.D D D D D D w w w w w w 5 ; ; % % $ $ $ $ $ $ $ $ $ ; ; ; 5 w w w w w S s.s.p.J D D ' s.s.l.B.B.t.V V V V V V V V V V V V V V V V V ",
"V V V V V V V V V V V V V V V V V | s.s.m.B.B.,.D D D D D Z e w w w w w 5 ; ; ; $ $ $ $ $ $ $ $ $ % ; ; ; 5 w w w w w S s.s.s.J D D ] s.s.j.B.B.t.V V V V V V V V V V V V V V V V V ",
"V V V V V V V V V V V V V V V V V | g.s.v.B.B.,.D D D D D D w w w w w w 5 ; ; * $ $ $ $ $ $ $ $ $ % ; ; ; 5 w w w w 6 S s.s.p.J D D ] s.s.j.B.B.t.V V V V V V V V V V V V V V V V V ",
"V V V V V V V V V V V V V V V V V | s.s.M.B.B.,.D D D D D D e w w w w w 5 ; ; ; % % $ $ $ $ & < < ; ; ; ; 5 w w w w w S s.s.p.J S S ] s.s.l.B.B.t.V V V V V V V V V V V V V V V V V ",
"V V V V V V V V V V V V V V V V C | s.s.v.B.B.,.D D D D D D e w w w w w 5 ; ; ; ; ; ; % $ $ r p.p.] 1 ; ; 5 w w w w 6 F s.s.s.J D D ] s.s.l.B.B.t.V V V V V V V V V V V V V V V V V ",
"V V V V V V V V V V V V V V V V C | s.f.m.B.B.,.D D D D D D w w 7 w w w 5 ; ; ; ; ; ; % $ $ r s.s.[ 1 ; ; 5 w w w w 6 F s.s.p.J D D ] s.s.l.B.B.t.V V V V V V V V V V V V V V V V V ",
"V V V V V V V V V V V V V V V V V | s.s.v.B.B.,.D D D D D D e w w w w w w w w 6 : ; ; % $ $ q s.s.} y 7 w w w w w w w e F D F D D D ] s.s.l.B.B.t.V V V V V V V V V V V V V V V V V ",
"V V V V V V V V V V V V V V V V V | s.s.m.B.B.,.D D D D D D w w w w w 6 w w w 6 : ; ; % $ $ q s.s. .y 7 w 6 w w w w w w F D D D D D ' s.s.l.B.B.t.V V V V V V V V V V V V V V V V V ",
"V V V V V V V V V V V V V V V V V | s.s.m.B.B.,.S D D D D D w 7 w w w 7 w w 7 6 : ; ; ; ; ; : 1 1 0 } p.p.S w w w w w S p.p.i.J D D ] s.s.j.B.B.N.V V V V V V V V V V V V V V V V V ",
"V V V V V V V V V V V V V V V V V | s.s.m.B.B.,.S D D D D D e w w w w w w w 7 6 : ; ; ; ; ; : ; ; 3 p.s.s.D w w w w w F s.s.p.J D D ] s.s.j.B.B.t.V V V V V V V V V V V V V V V V V ",
"V V V V V V V V V V V V V V V V V n n N t.B.B.,.D D D D D D D A Z t w w 7 w w 6 : ; ; ; ; ; ; ; ; 3 p.s.s.D w w e Z Z Z J J J F S D ] s.s.j.B.B.t.V V V V V V V V V V V V V V V V V ",
"V V V V V V V V V V V V V V V V V V V V e.B.B.,.D D D D D D D D D t 7 w w w 7 6 : ; ; ; ; ; ; ; ; 3 p.s.s.D w w Z Z D D F D D D S S ] s.s.z.B.B.t.V V V V V V V V V V V V V V V V V ",
"V V V V V V V V V V V V V V V V V V V V 1.j.j.z.2.2.>.G D D D D D Z 7 7 7 w w 6 : ; ; ; ; ; ; ; ; 3 p.s.s.D w w Z D D D D D F ' [ [ h.v.m.w.$.$.%.V V V V V V V V V V V V V V V V V ",
"V V V V V V V V V V V V V V V V V V V V 1.s.s.z.B.B.c.H D D D D D t w w w w w 6 : ; ; ; ; ; ; ; ; 3 i.s.s.D w w t D D D D D F } s.f.v.B.B.q.V V V V V V V V V V V V V V V V V V V V ",
"V V V V V V V V V V V V V V V V V V V V 1.s.s.l.B.B.c.H D D D D D t w w w w w 6 : ; ; ; ; ; q U U I K K K Z w w Z Z D D D D G } s.s.v.B.B.q.V V V V V V V V V V V V V V V V V V V V ",
"V V V V V V V V V V V V V V V V V V V V 1.s.s.z.B.B.c.H D D D D D t 7 w w w w 6 : ; ; ; ; ; A s.s.} Z 6 w w 6 w y D D D D D G i.s.f.v.B.B.q.V V V V V V V V V V V V V V V V V V V V ",
"V V V V V V V V V V V V V V V V V V V V 1.d.s.l.B.B.c.H D D D D D K Q Q K w w 7 2 2 2 : ; ; A s.s.} t w w w w w Z Z D D D D D } s.s.v.B.B.r.V V V V V V V V V V V V V V V V V V V V ",
"V V V V V V V V V V V V V V V V V V V V 1.s.s.z.B.B.c.H D D D D D ' s.s.[ w w w w w w 1 ; ; D s.s.} t w w w w w y D D D D D G } s.s.v.B.B.q.V V V V V V V V V V V V V V V V V V V V ",
"V V V V V V V V V V V V V V V V V V V V 1.s.s.z.B.B.c.H D D D D D W ^ ' W w w e J K K G Z A I Q Q W w w w e e e Z D D D D D G } s.s.v.B.B.q.V V V V V V V V V V V V V V V V V V V V ",
"V V V V V V V V V V V V V V V V V V V V 1.s.s.z.B.B.c.H D D D D D D D D Z w w t u.s.s.s.s.s.~ w w w w w w Z D D D D D D D D G } s.s.v.B.B.q.V V V V V V V V V V V V V V V V V V V V ",
"V V V V V V V V V V V V V V V V V V V V 6.1.1.c.m.v.c.) E E G D D D D D Z w 7 t u.s.s.} [ ] K w w w w w w Z D D D D D D K K K a.l.j.n.r.r.:.V V V V V V V V V V V V V V V V V V V V ",
"V V V V V V V V V V V V V V V V V V V V V V V *.f.f.g.M.B.M.Y D D D D D Z w w Z u.s.s.J w w w w w w w w w Z D D D D D K s.s.s.M.B.B.&.V V V V V V V V V V V V V V V V V V V V V V V ",
"V V V V V V V V V V V V V V V V V V V V V V C *.s.s.g.M.B.M.I D D D D D Z w w e / [ [ G w w w w 6 w w w w Z D D D D D J s.s.g.M.B.B.&.V V V V V V V V V V V V V V V V V V V V V V V ",
"V V V V V V V V V V V V V V V V V V V V V V C *.s.s.g.B.B.M.Y D D D D Z Z w w w w w w w w w w w w w w w w Z D D D D D K s.s.s.M.B.B.&.V V V V V V V V V V V V V V V V V V V V V V V ",
"V V V V V V V V V V V V V V V V V V V V V V V #.d.| d.M.M.M.E I I D D D A e w w w w w w w w w w w w w w w Z D D G G G T d.f.g.N.N.N.&.V V V V V V V V V V V V V V V V V V V V V V V ",
"V V V V V V V V V V V V V V V V V V V V V V V V V V b d.f.g.M.B.B.{ D D D D D Z e 7 w 7 w w w w w w D D D D D D ~ s.f.j.B.B.N.B V V V V V V V V V V V V V V V V V V V V V V V V V V ",
"V V V V V V V V V V V V V V V V V V V V V V V V V V B d.f.g.m.B.B.{ D D D D D Z e w w w w w w w w e S D D D D D ~ s.s.g.B.B.B.B V V V V V V V V V V V V V V V V V V V V V V V V V V ",
"V V V V V V V V V V V V V V V V V V V V V V V V V V N d.f.f.m.B.B.` D D D D D D D D D D D D D D D D D D D D D D ~ s.s.g.B.B.N.B V V V V V V V V V V V V V V V V V V V V V V V V V V ",
"V V V V V V V V V V V V V V V V V V V V V V V V V V n d.s.f.m.B.B.` D G D D S S D D D D D D D D D D D D D D D D ^ s.s.j.B.B.B.C V V V V V V V V V l l l V V V V V V V V V V V V V V ",
"V V V V V V V V V V V V V V V V V V V V V V V V V V c x m n 3.f.d.v.b.b.5.D S S D D D D D D D D D J p.p.p.p.s.p.z.B.M.t.C C C V V V V V V V V V V d s s V V V V V V V V V V V V V V ",
"V V V V V V V V V V V V V V V V V V V V V V V V V V V V V c 3.f.s.z.B.B.5.D S S D D D D D D D D D J p.s.s.s.s.s.v.B.B.y.C C V V V V V V V V V V V s s s V V V V V V V V V V V V V V ",
"V V V V V V V V V V V V V V V V V V V V V V V V k z V V V C N N N 7.g.j.g. .} } } [ i. .} }  .} [ i.s.s.s.v.M.m.X.$.C %.C C V V V V V V V l k V V g s s V V V l l z V V V V V V V V ",
"V V V V V V V V V V V V V V V V V V V V V V g s d z V V V V V V V O.s.f.s.s.f.f.s.f.f.s.f.f.s.s.s.s.s.s.f.m.B.B...C C V V V V V V V V f s s k V V g s s V V V s s g V V V V V V V V ",
"V V V V V V V V V V V V V V V V V V V V V V g s d z V V V V V V V m b b =.m.m.m.m.m.m.m.m.m.m.m.m.m.m.m.m.;.%.%.C C V V V V V V V V V h s d l V V d s s V V l s s g V V V V V V V V ",
"V V V V V V V V V V V V V V V V z k j V V V d s s k V V j j V V V V V V %.M.B.B.B.B.B.B.B.B.B.B.B.B.B.B.B.$.V V V V V V V V V V V V V k g g k j j g g g j k j g g k V V V V V V V V ",
"V V V V V V V V V V V V V V V V k s s j V V g s s z V V s s d V V V V V c &.&.&.&.&.&.&.&.&.&.&.&.&.&.&.&.C V V V V V V V V V V V V V V V V g s s V V V s s g V V V V V V V V V V V ",
"V V V V V V V V V V V V V V V V z s s k V V g s s V V z s s g V V V V V V V V V V V V V V V V V V V V V V V V V V V V V V V V V V V V V V V g g s V V V s s g V V V V V V V V V V V ",
"V V V V V V V V V V V V V V V V k k k k j j j j g k g j k j k V V V V V V V V V V V V V V V V V V V V V V V V V V V V V V V V V V V V V V V l g k g j g j j k V V V V V V V V V V V ",
"V V V V V V V V V V V V V V V V V V V j s s k V V g s d V V V V V V V V V V V V V V V V V V V V V V V V V V V V V V V V V V V V V V V V V V V V V s s s V V V V V V V V V V V V V V ",
"V V V V V V V V V V V V V V V V V V V g s s V V V s s g V V V V V V V V V V V V V V V V V V V V V V V V V V V V V V V V V V V V V V V V V V V V V g s s V V V V V V V V V V V V V V ",
"V V V V V V V V V V V V V V V V V V V k k k j g g k k V V V V V V V V V V V V V V V V V V V V V V V V V V V V V V V V V V V V V V V V V V V V V V z l l V V V V V V V V V V V V V V ",
"V V V V V V V V V V V V V V V V V V V V V V g d s V V V V V V V V V V V V V V V V V V V V V V V V V V V V V V V V V V V V V V V V V V V V V V V V V C V V V V V V V V V V V V V V V ",
"V V V V V V V V V V V V V V V V V V V V V V g s s V V V V V V V V V V V V V V V V V V V V V V V V V V V V V V V V V V V V V V V V V V V V V V V V V V V V V V V V V V V V V V V V V ",
"V V V V V V V V V V V V V V V V V V V V V V k V k V V V V V V V V V l i u u u u u u u u u u u u u u u u u u p V V V V V V V V V V V V V V V V V V V V V V V V V V V V V V V V V V V ",
"V V V V V V V V V V V V V V V V V V V V V V V V V V V V V V V V V V g O                                     + h V V V V V V V V V V V V V V V V V V V V V V V V V V V V V V V V V V ",
"V V V V V V V V V V V V V V V V V V V V V V V V V a a a a a a a a a i o                                     o p a a a a a a a a g V V V V V V V V V V V V V V V V V V V V V V V V V ",
"V V V V V V V V V V V V V V V V V V V V V V V V l @                                                                             # V V V V V V V V V V V V V V V V V V V V V V V V V ",
"V V V V V V V V V V V V V V V V V V V V V V V V l = X X X X o o X o X                                         . o X o X o X o X - V V V V V V V V V V V V V V V V V V V V V V V V V ",
"V V V V V V V V V V V V V V V V V V V V V V V V V V h h h h h h h h a o                                     + f h h h h h h h h h V V V V V V V V V V V V V V V V V V V V V V V V V ",
"V V V V V V V V V V V V V V V V V V V V V V V V V V V V V V V V V V g O                                     + l V V V V V V V V V V V V V C V V V V V V V V V V V C V V V V V V V V "
};
