/* XPM */
static char *portal_11674398268[] = {
/* columns rows colors chars-per-pixel */
"90 90 139 2 ",
"   c black",
".  c #080B07",
"X  c #090C08",
"o  c #141D10",
"O  c #182313",
"+  c #1D2A17",
"@  c #0E1C2B",
"#  c #0D1F30",
"$  c #0D2133",
"%  c #0B263A",
"&  c #0B283C",
"*  c #0A2B43",
"=  c #0A2F49",
"-  c #0A304A",
";  c #0C3553",
":  c #0C3D5D",
">  c #103855",
",  c #123C5B",
"<  c #0E3E60",
"1  c #0C4165",
"2  c #0D466B",
"3  c #0E496F",
"4  c #0D4970",
"5  c #104E76",
"6  c #114F78",
"7  c #1A5077",
"8  c #12517B",
"9  c #1B537B",
"0  c #6DA558",
"q  c #6FA859",
"w  c #74AC5C",
"e  c #7AAF5F",
"r  c #77B05E",
"t  c #78B15F",
"y  c #7AAF60",
"u  c #7CB461",
"i  c #7FB863",
"p  c #7AB56E",
"a  c #7EB96B",
"s  c #71AA7B",
"d  c #75B475",
"f  c #79B673",
"g  c #7EB873",
"h  c #73B279",
"j  c #7CB77A",
"k  c #82BB65",
"l  c #80B96B",
"z  c #165681",
"x  c #1D5680",
"c  c #165885",
"v  c #185986",
"b  c #195C8A",
"n  c #1E608D",
"m  c #1D6393",
"M  c #1F6698",
"N  c #1F699A",
"B  c #21628F",
"V  c #256693",
"C  c #286A96",
"Z  c #216C9E",
"A  c #2A6C98",
"S  c #2D709B",
"D  c #226EA2",
"F  c #2471A5",
"G  c #2675AA",
"H  c #2778AE",
"J  c #2D7BAF",
"K  c #3376A1",
"L  c #3578A4",
"P  c #397BA7",
"I  c #2779B0",
"U  c #297CB3",
"Y  c #2B7FB8",
"T  c #3C80AA",
"R  c #2E83BD",
"E  c #3A8BB3",
"W  c #3987BB",
"Q  c #659C80",
"!  c #5CA28E",
"~  c #5AA49B",
"^  c #66AB8A",
"/  c #77B583",
"(  c #79B582",
")  c #76B38C",
"_  c #67A595",
"`  c #60A892",
"'  c #6AAC9F",
"]  c #71AF92",
"[  c #70AF9E",
"{  c #72B096",
"}  c #71B09A",
"|  c #509FA8",
" . c #599DAB",
".. c #4185B1",
"X. c #4589B3",
"o. c #488CB6",
"O. c #4B8EB8",
"+. c #4699B5",
"@. c #499AB3",
"#. c #4296BC",
"$. c #4D92BC",
"%. c #4498B9",
"&. c #4C9CBD",
"*. c #5F9EB5",
"=. c #5195BF",
"-. c #56A2A0",
";. c #58A3A0",
":. c #5AA4B4",
">. c #6EAFA4",
",. c #65A5AA",
"<. c #6BADAD",
"1. c #70AFA1",
"2. c #64A6B1",
"3. c #66A9B2",
"4. c #69ABB5",
"5. c #62A7BC",
"6. c #66A9BD",
"7. c #68ABB8",
"8. c #2F86C1",
"9. c #3086C1",
"0. c #318AC5",
"q. c #3D8DC2",
"w. c #348FCD",
"e. c #3992C7",
"r. c #3790CD",
"t. c #3A92CD",
"y. c #4692C4",
"u. c #4F9BC6",
"i. c #4597CE",
"p. c #4699CE",
"a. c #4A9ACD",
"s. c #559AC3",
"d. c #539ECE",
"f. c #5A9FC8",
"g. c #54A0C3",
"h. c #5CA4C2",
"j. c #56A0CE",
"k. c #5DA3CE",
"l. c #61A6CF",
/* pixels */
"k k k k k k k k k k k k k k k k k k k k k k k k k k k k k k k k k k k k ( l.l.l.l.l.l.l.l.l.l.l.l.k.l.l.l.j k k k k k k k k k k k k k k k k k k k k k k k k k k k k k k k k k k k k ",
"k k k k k k k k k k k k k k k k k k k k k k k k k k k k k k k k k a k k / k.l.k.l.l.k.l.l.k.l.l.l.k.k.k.k.( l l k k k k k k k k k k k k k k k k k k k k k k k k k k k k k k k k k k ",
"k k k k k k k k k k k k k k k k k k k k k k k k k k k k k k k k k 1.l.l.j.r.t.r.t.r.t.w.r.r.r.r.t.r.t.r.e.k.l.l.Q k k k k k k k k k k k k k k k k k k k k k k k k k k k k k k k k k ",
"k k k k k k k k k k k k k k k k k k k k k k k k k k k k k k k i k 1.l.l.j.r.r.r.w.w.w.w.w.w.w.r.w.w.w.r.w.j.l.l.Q k k k k k k k k k k k k k k k k k k k k k k k k k k k k k k k k k ",
"k k k k k k k k k k k k k k k k k k k k k k k k k k k k k a +.e.e.a.l.l.&.b b b b b b b b b b b b M 0.w.w.r.t.t.s.l.l.4.k k k k k k k k k k k k k k k k k k k k k k k k k k k k k k ",
"k k k k k k k k k k k k k k k k k k k k k k k k k k i a a f %.r.r.u.k.l.=.b v v v v c c c v c b b m 0.0.w.0.0.w.a.l.l.7.l l l k k k k k k k k k k k k k k k k k k k k k k k k k k k ",
"k k k k k k k k k k k k k k k k k k k k k k k k k k d +.#.#.j.k.k...C C B v v v v v v v v v b c v b b m m m m n J t.t.p.6.7.6.j k k k k k k k k k k k k k k k k k k k k k k k k k k ",
"k k k k k k k k k k k k k k k k k k k k k k k k k k d e.r.r.j.l.l.P v v v v v v v v v v v v c c v v b v v v v v G r.w.i.l.l.l.j k k k k k k k k k k k k k k k k k k k k k k k k k k ",
"k k k k k k k k k k k k k k k k k k k k k k k k k k h e.w.w.k.l.l.T b v v v v z 5 4 5 4 4 4 4 6 5 6 c v v v v v G r.r.t.l.l.l.g k k k k k k k k k k k k k k k k k k k k k k k k k k ",
"k k k k k k k k k k k k k k k k k k k k k k k k k k h e.w.w.k.l.l.T v v v b v v 4 4 4 4 4 4 4 4 4 4 c v v v v v F w.r.t.l.l.l.j k k k k k k k k k k k k k k k k k k k k k k k k k k ",
"k k k k k k k k k k k k k k k k k k k k k k k ^ +.+.&.d.j.d.K A A B v v z 4 4 4 4 4 4 4 4 4 4 4 4 4 4 5 4 c v v n m m F t.t.p.5.4.7./ k k k k k k k k k k k k k k k k k k k k k k k ",
"k k k k k k k k k k k k k k k k k k k k k k k ` w.w.t.l.l.l.C v v v v v v 4 4 3 4 4 4 4 4 4 4 4 4 4 4 4 4 z v v b c b m e.r.e.k.l.l.{ k k k k k k k k k k k k k k k k k k k k k k k ",
"k k k k k k k k k k k k k k k k k k k k k k k ` w.w.t.l.l.k.C v v v v v z 3 4 4 4 4 3 4 4 3 m R Y G 4 4 4 z v v v v v m w.w.r.k.l.l.) k k k k k k k k k k k k k k k k k k k k k k k ",
"k k k k k k k k k k k k k k k k k k k k k k k ! w.w.t.k.l.l.C v v v v v z 4 3 4 4 4 3 3 4 4 N w.w.8.6 4 4 c v v v v v M w.w.t.j.l.l.) k k k k k k k k k k k k k k k k k k k k k k k ",
"k k k k k k k k k k k k k k k k k k k k ;.+.@.s.d.d.u.K S S b v v v v v 8 4 4 4 4 4 4 F U U 8.w.w.w.Y Y Y b v v v v v b M M Z q.i.t.h.3.2._ u i k k k k k k k k k k k k k k k k k k ",
"k k k k k k k k k k k k k k k k k k k k +.r.r.a.l.l.s.n v v b v v v v v z 4 4 4 4 4 4 I r.r.w.w.w.w.w.w.w.V v v v v v v c b b R w.w.d.l.l.,.u k k k k k k k k k k k k k k k k k k k ",
"k k k k k k k k k k k k k k k k k k k k @.r.r.p.l.l.s.n v v v v c z 6 6 4 4 4 6 F G G B 9 8 c m M Z w.w.w.R U U Z b v v v v b 8.w.r.d.l.l.2.y k k k k k k k k k k k k k k k k k k k ",
"k k k k k k k k k k k k k k k k k k k k @.r.r.p.l.l.s.n v v v v b 6 4 4 4 4 4 8 8.w.w.7 * = ; 4 4 z 0.w.w.w.w.w.G v v v v v b 8.w.w.d.l.l.4.k k k k k k k k k k k k k k k k k k k k ",
"k k k k k k k k k k k k k k k k k k k k @.w.w.p.l.l.s.n v v v v c 6 4 4 4 4 4 2 9 x x < * * = ; ; < m M N 0.w.w.G v v v c c b 8.w.w.d.l.l.<.k k k k k k k k k k k k k k k k k k k k ",
"k k k k k k k k k k k k k k k k k k k k @.w.r.p.l.l.s.n v v v v b 6 4 4 4 4 4 2 - * * * * * * * = = 2 4 4 R w.w.G c v v v b b R w.w.d.l.l.<.k k k k k k k k k k k k k k k k k k k k ",
"k k k k k k k k k k k k k k k k k k k k @.w.w.p.l.l.s.n v v v v v 6 4 4 4 4 4 2 = * * * * * * * * = 2 4 4 Y w.w.R I I D b v b 9.w.w.d.l.l.<.k k k k k k k k k k k k k k k k k k k k ",
"k k k k k k k k k k k k k k k k k k k k @.w.w.p.l.l.s.n v v v b v 6 4 4 4 4 4 2 = * * * * * * = * = 2 4 4 R w.w.w.w.r.R v v b 8.w.w.d.l.l.<.k k k k k k k k k k k k k k k k k k k k ",
"k k k k k k k k k k k k k k k k k k k k :.a.a.y.T T P b v b F F H b 4 4 4 4 4 2 - * * * * * * * * = 4 4 4 m D N Y r.w.R v v v D G F y.a.a.g.1.1.] k k k k k k k k k k k k k k k k k ",
"k k k k k k k k k k k k k k k k k k k k 4.l.l.X.v v b v v b 8.w.w.Z 4 4 4 4 4 2 = * * * * * * * * = 2 4 4 4 4 4 F w.w.R v v v v v v I w.w.p.l.l.*.k k k k k k k k k k k k k k k k k ",
"k k k k k k k k k k k k k k k k k ! ~ ~ h.l.l.X.v v v v b b 8.w.w.Z 4 4 4 4 4 2 = * * * * * * * * = 2 4 4 4 4 4 F w.w.9.v v v v v v U w.w.i.l.l.*.k k k k k k k k k k k k k k k k k ",
"k k k k k k k k k k k k k k k k k E w.w.j.l.l.o.v v v v c b 8.w.w.Z 4 4 4 3 3 2 = * * = * * * * * = 2 4 4 4 4 4 F w.w.Y v v v v v v U w.w.i.l.l.*.k k k k k k k k k k k k k k k k k ",
"k k k k k k k k k k k k k k k k k E w.w.j.l.k.X.v v n F F F F F G b 4 4 4 2 4 2 = * * & % % % * * = 2 4 4 2 4 4 D w.w.8.b v v v v v U w.w.i.l.l.*.k k k k k k k k k k k k k k k k k ",
"k k k k k k k k k k k k k k k k k E r.w.j.l.l.X.v v m 0.r.w.c 3 4 4 4 4 4 4 4 2 = * * $ @ @ # * = = 2 4 4 4 4 4 F w.w.8.v v v v v v U w.w.i.l.k.*.k k k k k k k k k k k k k k k k k ",
"k k k k k k k k k k k k k k k k i E w.w.j.k.l.o.v v m w.r.w.c 3 4 4 4 4 2 : < : = * * # @ @ # * * = : : < 2 4 4 m G G F b v v v v v U w.w.i.l.l.*.k k k k k k k k k k k k k k k k k ",
"k k k k k k k k k k k k k k k k y E w.w.j.k.k.X.v v m 0.r.0.c 4 4 4 3 4 1 * * * * * * # @ @ # * * * * * = < 4 4 4 4 4 5 v v v v v v U w.r.i.l.l.*.k k k k k k k k k k k k k k k k k ",
"k k k k k k k k k k k k k k k k y E r.w.j.l.l.X.v v m w.w.w.c 4 4 4 4 4 < * * * % % % # @ @ # % % % * * * < 4 4 z m m n v v v v v v Y w.w.i.l.l.*.k k k k k k k k k k k k k k k k k ",
"k k k k k k k k k k k k k k k k i E w.w.j.l.l.o.v v m 0.w.w.c 4 4 4 4 4 1 * * * @ @ @ @ @ @ @ @ @ @ * * = < 4 4 D w.w.R v v v v v v U w.w.i.l.l.*.k k k k k k k k k k k k k k k k k ",
"k k k k k k k k k k k k k k k k k E w.w.j.l.l.X.v v M 0.w.w.c 4 4 4 4 2 1 * * & @ @ @ @ @ @ @ @ @ @ & * = < 4 4 m Y Y I c c c b v v U w.w.i.l.l.*.k k k k k k k k k k k k k k k k k ",
"k k k k k k k k k k k k k k k k k E w.w.j.l.l.X.v v m w.w.0.c 4 4 4 4 4 1 * * * @ @ @ @ @ @ @ @ @ @ * * = < 4 4 4 4 4 6 c c c b v v U w.w.i.l.l.*.k k k k k k k k k k k k k k k k k ",
"k k k k k k k k k k k k k k k k k E w.w.j.l.l.X.v v m w.w.0.z 4 4 4 4 4 1 * * & @ @ @ @ @ @ @ @ @ @ * * * < 4 4 4 4 4 4 v v v v v v U w.w.i.l.l.*.k k k k k k k k k k k k k k k k k ",
"k k k k k k k k k k k k k k k k k E w.w.j.l.l.X.v v m 0.r.w.c 4 4 4 4 4 1 * * * @ @ @ @ @ @ @ @ @ @ * * = < 4 4 4 4 4 4 v v v v v v U w.w.i.l.l.*.k k k k k k k k k k k k k k k k k ",
"k k k k k k k k k k k k k k k k k E w.w.k.l.l.X.v v m 0.w.w.z 4 2 4 4 4 1 * * & # @ @ @ @ @ @ @ @ @ * * * < 4 4 4 4 4 4 c v v v v v U w.w.i.l.l.*.k k k k k k k k k k k k k k k k k ",
"k k k k k k k k k k k k k k k k k E w.w.d.l.l.X.v v m w.w.w.z 4 4 4 4 4 1 * * * @ @ @ @ @ @ @ @ @ # * * = < 4 4 4 4 4 5 c v v v v v I w.w.i.l.l.*.k k k k k k k k k k k k k k k k k ",
"k k k k k k k k k k k k k k k k l E w.w.d.l.l.X.v v m w.w.w.m 8 6 4 4 4 1 * * * @ @ @ @ @ @ @ @ @ @ * * * 1 4 4 4 3 4 5 c v v v v v Y w.r.i.l.l.*.k k k k k k k k k k k k k k k k k ",
"k k k k k k k k k k k k k k k k k E w.r.d.l.l.X.v v n w.w.w.w.w.w.D 4 4 1 * * & # @ o @ @ @ @ @ @ @ * * * < 4 4 4 4 4 5 v v v v v v U w.w.i.l.l.*.k k k k k k k k k k k k k k k k k ",
"k k k k k k k k k k k k k k k k k E w.w.j.l.l.o.v v m 0.w.w.w.w.w.N 4 4 1 * * * # @ @ @ @ @ @ @ @ @ * * = < 4 4 4 3 4 5 z v v v v v U w.w.i.l.l.*.k k k k k k k k k k k k k k k k k ",
"k k k k k k k k k k k k k k k k k E w.w.j.l.l.X.v v m w.w.w.w.w.w.D 4 4 1 * * & @ @ @ @ @ @ @ @ @ @ * * = < 4 4 4 4 4 4 c v v v v v U w.w.i.l.l.*.k k k k k k k k k k k k k k k k k ",
"k k k k k k k k k k k k k k k k k E r.w.j.l.l.X.v v m 9.0.0.w.w.w.D 4 4 1 * * * $ @ @ @ @ @ @ @ @ # * * = < 4 4 5 6 z z c v v v v v U w.w.i.k.l.*.k k k k k k k k k k k k k k k k k ",
"k k k k k k k k k k k k k k k k k E r.w.j.k.l.X.v v v b b m 9.w.w.N 4 4 1 * * = * * & # @ @ $ * * * * = = < 4 4 D w.0.Y b v v v v v U w.w.i.l.l.*.k k k k k k k k k k k k k k k k k ",
"k k k k k k k k k k k k k k k k k E w.w.j.l.l.o.v v v v v b R 0.0.D 6 6 4 ; - - * * * $ @ @ $ * * * = = - < 4 4 F w.w.R b b z b v v U w.r.i.l.l.*.k k k k k k k k k k k k k k k k k ",
"k k k k k k k k k k k k k k k k k W w.w.j.l.l.X.v v v v v v 6 5 6 G 0.0.0.0.R R > * * $ @ @ $ * * = < < 4 < 4 4 F w.w.R b z b z v v U w.r.i.l.l.*.k k k k k k k k k k k k k k k k k ",
"k k k k k k k k k k k k k k k k k E r.w.j.l.l.X.v v v v v v 4 3 4 F w.w.w.w.w.8.: * * $ @ @ $ * = ; 4 4 4 4 4 5 F w.w.R b z z b v v Y w.w.i.l.l.*.k k k k k k k k k k k k k k k k k ",
"k k k k k k k k k k k k k k k k k E w.w.j.k.l.X.v v v v v v 5 3 4 4 6 6 m w.w.R , & * * & * * * * ; < 4 4 4 4 < F w.w.R b b b z v v U w.w.i.l.l.*.k k k k k k k k k k k k k k k k k ",
"k k k k k k k k k k k k k k k k k E r.w.j.k.l.o.v v v v v v 5 5 4 4 4 4 c w.w.8.< * * * * * * * * = < 4 4 4 4 4 D w.w.Y b c c c v v I w.w.i.l.l.:.k k k k k k k k k k k k k k k k k ",
"k k k k k k k k k k k k k k k k k p f f 7.k.k.X.v v v v v v z z z 5 4 4 4 6 z 6 ; * * * * * * * * = 4 4 4 4 4 4 D w.w.8.b c c b v v U r.r.i.l.l.*.k k k k k k k k k k k k k k k k k ",
"k k k k k k k k k k k k k k k k k k k k 4.l.l.X.v v v v v v v v c 6 4 4 4 4 4 2 * * * * * * * * = = < 5 4 4 4 4 D w.w.8.b c c v c v R w.w.i.k.l.*.k k k k k k k k k k k k k k k k k ",
"k k k k k k k k k k k k k k k k k k k k @.t.t.a.f.f.&.n v v v v c z 4 4 4 4 4 < = * * * * * * * * = 4 4 5 I 8.0.I b m b v b b Y 0.0.a.k.j.4.g g l k k k k k k k k k k k k k k k k k ",
"k k k k k k k k k k k k k k k k k k k k +.w.r.p.l.l.s.n v v v v c 6 4 4 4 4 4 2 = * * * * * * * * = 4 4 4 Y w.w.G v v v v v b 8.w.w.j.l.l.<.k k k k k k k k k k k k k k k k k k k k ",
"k k k k k k k k k k k k k k k k k k k k @.r.r.p.l.l.s.n v v v v c 6 4 4 4 4 4 2 = * * * * * * * * < Y 8.8.w.w.w.G v v v v v b 8.w.w.d.l.l.<.k k k k k k k k k k k k k k k k k k k k ",
"k k k k k k k k k k k k k k k k k k k k +.r.r.i.l.l.s.n v v v v c z 4 4 4 4 4 3 = = * * * * * * * < 0.w.w.w.w.w.G v v v v v b 8.w.w.j.l.l.<.k k k k k k k k k k k k k k k k k k k k ",
"k k k k k k k k k k k k k k k k k k k i +.w.r.p.l.l.s.n v v v v c 6 4 4 4 4 4 4 < < < ; * * ; < < < b b b b b b b v v v v v b 8.w.w.j.l.l.<.k k k k k k k k k k k k k k k k k k k k ",
"k k k k k k k k k k k k k k k k k k k k @.r.r.p.l.l.s.n v v v v c 6 < 5 4 4 3 4 4 4 4 ; * * > 4 4 4 4 4 4 3 3 3 z z v v v v b 8.w.w.d.k.l.<.k k k k k k k k k k k k k k k k k k k k ",
"k k k k k k k k k k k k k k k k k k k k +.r.r.p.l.l.s.n v v v v b z z z z 3 4 5 G U U 4 * * ; 4 3 3 4 3 4 6 z z z v v v v v b 8.w.w.d.k.l.<.k k k k k k k k k k k k k k k k k k k k ",
"k k k k k k k k k k k k k k k k k k k k @.r.w.p.l.l.s.n v v b v v v v v z 4 4 6 8.w.w.6 * * > 4 4 4 3 4 3 z v v v v v v v v b 8.r.r.j.l.l.<.k k k k k k k k k k k k k k k k k k k k ",
"k k k k k k k k k k k k k k k k k k k k h ^ ^ | i.i.a.O.O.o.B b v v v v z 4 4 4 c m m D D D F I I D 5 3 3 z v v v v v m U U U i.d.j.' ) ) / k k k k k k k k k k k k k k k k k k k k ",
"k k k k k k k k k k k k k k k k k k k k k k k ! w.w.t.l.l.k.V x v v v v z 4 4 2 4 4 4 I w.w.w.0.w.R 6 4 3 z c v v v v M w.w.r.k.l.l.) k k k k k k k k k k k k k k k k k k k k k k k ",
"k k k k k k k k k k k k k k k k k k k k k k k _ w.w.t.k.l.k.C x v v v v z 4 4 4 4 4 4 c m m m m m b 4 4 3 z c v v v v V w.w.r.k.l.l.) k k k k k k k k k k k k k k k k k k k k k k k ",
"k k k k k k k k k k k k k k k k k k k k k k k _ w.r.t.l.l.k.C v v v v v z 2 4 4 4 4 4 4 2 4 4 4 4 2 4 4 3 z c c v v x V w.w.r.k.l.l.{ k k k k k k k k k k k k k k k k k k k k k k k ",
"k k k k k k k k k k k k k k k k k k k k k k k d ^ ^ ~ i.i.a.y.o.o.D c c c z 6 z 4 4 4 4 4 4 4 4 4 4 z z z c v b Z U U Y a.d.s.[ ) ) g k k k k k k k k k k k k k k k k k k k k k k k ",
"k k k k k k k k k k k k k k k k k k k k k k k k k k d e.r.r.j.k.l.T v v v v v v 4 4 4 4 4 4 4 4 4 4 v v v v v v G w.w.i.k.l.l.l k k k k k k k k k k k k k k k k k k k k k k k k k k ",
"k k k k k k k k k k k k k k k k k k k k k k k k k k d e.r.r.k.l.l.T v v v v v v 8 8 8 8 8 6 6 z 6 z v v v v v v G w.w.i.l.l.l.j k k k k k k k k k k k k k k k k k k k k k k k k k k ",
"k k k k k k k k k k k k k k k k k k k k k k k k k k d e.w.r.j.k.l.T v b v v v v v v v v v v v v v v v v v v v v G w.w.i.l.l.l.j k k k k k k k k k k k k k k k k k k k k k k k k k k ",
"k k k k k k k k k k k k k k k k k k k k k k k k k k f ~ ;.;.g.a.p.$.T T L v v v v v v v v v v v v b F F F G F F W a.p.g.[ ' { l k k k k k k k k k k k i k k k k k k k k k k k k k k ",
"k k k k k k k k k k k k k k k k k k k k k k k k k k k k k a %.r.r.a.l.l.=.b v b v v b c v v v v v n w.w.w.w.w.w.a.l.l.7.k k k k k k k k k k k k k u i u k k k k k k k k k k k k k k ",
"k k k k k k k k k k k k k k k k k k k k k k k k k k k k k a ! ;.-.&.a.a.y.G D D F F F F G D G D D G 0.w.w.i.a.a. .1.>.} k k k k k k k k k k k k k q 0 0 k k k k k k k k k k k k k k ",
"k k k k k k k k k k k k k k k k k k k k k k k k k k k k k k k k k -.w.r.w.w.w.w.w.w.r.w.w.w.w.w.w.w.w.w.r.d.l.l.Q k k k k k k k k k k k k k k k k q 0 0 k k k k k i k k k k k k k k ",
"k k k k k k k k k k k k k k k k k k k k k k i i i i k k k k k k k ^ |  .@.p.p.p.p.p.p.p.p.p.p.i.p.a.p.p.a.3.<.4.s k k k k k k k k k k i i i i k k q 0 0 k k k i i u k k k k k k k k ",
"k k k k k k k k k k k k k k k k k k k k k k w 0 q i k k k k k k k k k k ( l.l.l.l.l.l.l.l.l.l.l.l.l.l.l.l.( k k k k k k k k k k k k k w q 0 w k k w 0 0 k k i 0 q w k k k k k k k k ",
"k k k k k k k k k k k k k k k k k k k k k k q 0 0 i k k k k k k k k k k g >.>.>.>.>.>.>.>.1.1.1.>.>.>.>.>.j k k k k k k k k k k k k k e q q i k k q 0 0 k k i 0 0 r k k k k k k k k ",
"k k k k k k k k k k k k k k k k i y y k k k q 0 0 u k k r r i k k k k k k k k k k k k k k k k k k k k k k k k k k k k k k k k k k k k u w w t r r w w w r y r w w r k k k k k k k k ",
"k k k k k k k k k k k k k k k k y 0 0 u k k q 0 0 i k i 0 0 w k k k k k k k k k k k k k k k k k k k k k k k k k k k k k k k k k k k k k k k w 0 q i k k 0 0 w k k k k k k k k k k k ",
"k k k k k k k k k k k k k k k k i 0 0 r i k q 0 0 i i i 0 0 q k k k k k k k k k k k k k k k k k k k k k k k k k k k k k k k k k k k k k k k w 0 0 i k k 0 0 w i k k k k k k k k k k ",
"k k k k k k k k k k k k k k k k i r r u r y u y r r r u y r u k k k k k k k k k k k k k k k k k k k k k k k k k k k k k k k k k k k k k k k i w u w u w r w u k k k k k k k k k k k ",
"k k k k k k k k k k k k k k k k k k i r 0 0 i k i w 0 q k k i k k k k k k k k k k k k k k k k k k k k k k k k k k k k k k k k k k k k k k k k k k 0 0 0 k k k k k k k k k k k k k k ",
"k k k k k k k k k k k k k k k k k i i w 0 0 u k k 0 0 w k k k k k k k k k k k k k k k k k k k k k k k k k k k k k k k k k k k k k k k k k k k k k q 0 0 k k k k k k k k k k k k k k ",
"k k k k k k k k k k k k k k k k k k k i u u w r w u t i k k k k k k k k k k k k k k k k k k k k k k k k k k k k k k k k k k k k k k k k k k k k k i u u k k k k k k k k k k k k k k ",
"k k k k k k k k k k k k k k k k k k k k k k q q 0 i k k k k k k k k k k k k k k k k k k k k k k k k k k k k k k k k k k k k k k k k k k k k k k k k k k k k k k k k k k k k k k k k ",
"k k k k k k k k k k k k k k k k k k k k k k w q 0 a k k k k k k k k k k k k k k k k k k k k k k k k k k k k k k k k k k k k k k k k k k k k k k k k k k k k k k k k k k k k k k k k ",
"k k k k k k k k k k k k k k k k k k k k i i u i u i k k k k k k k k k k k k k k k k k k k k k k k k k k k k k k k k k k k k k k k k k k k k k k k k k k k k k k k k k k k k k k k k ",
"k k k k k k k k k k k k k k k k k k k k k k k k k k k k k k k k k k k k k k k k k k k k k k k k k k k k k k k k k k k k k k k k k k k k k k k k k k k k k k k k k k k k k k k k k k ",
"k k k k k k k k k k k k k k k k k k k k k k k k k k k k k k k k k k k k k k k k k k k k k k k k k k k k k k k k k k k k k k k k k k k k k k k k k k k k k k k k k k k k k k k k k k ",
"k k k k k k k k k k k k k k k k k k k k k k k k k k k k k k k k k k k k k k k k k k k k k k k k i i k k i k k k k k k k k k k k k k k k k k k k k k k k k k k k k k k k k k k k k k ",
"k k k k k k k k k k k k k k k k k k k k k k k k k k k k k k k k k k k e e k t u t k e e k e e e u u u u u u i k k k k k k k k k k k k k k k k k k k k k k k k k k k k k k k k k k k ",
"k k k k k k k k k k k k k k k k k k k k k k k k k k k k k k k k k k w o                                     O t k k k k k k k k k k k k k k k k k k k k k k k k k k k k k k k k k k ",
"k k k k k k k k k k k k k k k k k k k k k k k k k k k k k k k k k k w + . . . . . . . . . . . . X X X X X X + u k k k k k k k k k k k k k l k k k k k k l k k k l k k k k k k k k k "
};
