/* XPM */
static char *portal_4_11674398376[] = {
/* columns rows colors chars-per-pixel */
"90 90 166 2 ",
"   c #010101",
".  c #050804",
"X  c #080D07",
"o  c #0E1C2B",
"O  c #0D1F30",
"+  c #0D202F",
"@  c #0D2133",
"#  c #0B263B",
"$  c #293A20",
"%  c #2E4224",
"&  c #324827",
"*  c #344B29",
"=  c #3C562F",
"-  c #415D32",
";  c #476637",
":  c #496A3A",
">  c #0A2B43",
",  c #0A2F49",
"<  c #0A304B",
"1  c #0C3552",
"2  c #0D3B5B",
"3  c #123C5B",
"4  c #0C3F60",
"5  c #0C4265",
"6  c #0D466B",
"7  c #0D486F",
"8  c #15476A",
"9  c #0D4970",
"0  c #104D76",
"q  c #104F78",
"w  c #12517B",
"e  c #1C537A",
"r  c #638E4D",
"t  c #65914F",
"y  c #679450",
"u  c #699652",
"i  c #6C9B54",
"p  c #67985A",
"a  c #6FA157",
"s  c #6DA558",
"d  c #6FA859",
"f  c #70A157",
"g  c #72A459",
"h  c #75AA5C",
"j  c #79AD5E",
"k  c #77B05E",
"l  c #79B15F",
"z  c #5C9166",
"x  c #5E9569",
"c  c #5B9379",
"v  c #649665",
"b  c #699C66",
"n  c #63956B",
"m  c #639773",
"M  c #6BA166",
"N  c #73A96E",
"B  c #7DB461",
"V  c #7FB863",
"C  c #7DB96A",
"Z  c #6FA674",
"A  c #63A078",
"S  c #70AE76",
"D  c #77B578",
"F  c #7AB67D",
"G  c #80B763",
"H  c #82BB65",
"J  c #80BA69",
"K  c #155681",
"L  c #1C5780",
"P  c #165986",
"I  c #185986",
"U  c #1A5C8B",
"Y  c #1F608D",
"T  c #1D6393",
"R  c #1F699B",
"E  c #21628E",
"W  c #226491",
"Q  c #286A96",
"!  c #206798",
"~  c #216B9C",
"^  c #2B6C99",
"/  c #246FA2",
"(  c #2472A6",
")  c #2675AA",
"_  c #2877AE",
"`  c #2A79AF",
"'  c #3376A2",
"]  c #3678A4",
"[  c #387CA7",
"{  c #2779B0",
"}  c #297BB3",
"|  c #2B7FB8",
" . c #307EB2",
".. c #3D80AB",
"X. c #2E84BE",
"o. c #3A8BB3",
"O. c #3084BE",
"+. c #3C8ABC",
"@. c #3F96BE",
"#. c #51958F",
"$. c #589E8D",
"%. c #478F99",
"&. c #4A9297",
"*. c #4E969B",
"=. c #529790",
"-. c #549B91",
";. c #659D87",
":. c #639E9A",
">. c #5EA591",
",. c #5BA598",
"<. c #6AA384",
"1. c #65A78B",
"2. c #6FAA88",
"3. c #7AB681",
"4. c #75B28C",
"5. c #65A293",
"6. c #6BA690",
"7. c #67A39E",
"8. c #70AF9E",
"9. c #73B194",
"0. c #4184AF",
"q. c #4F9EA7",
"w. c #4392AE",
"e. c #4C9DAC",
"r. c #529EA6",
"t. c #5B9AA4",
"y. c #4589B3",
"u. c #498DB7",
"i. c #4495B0",
"p. c #4698B4",
"a. c #4297BB",
"s. c #4A90BC",
"d. c #4D9BB9",
"f. c #549EB5",
"g. c #589DB1",
"h. c #57A1BE",
"j. c #66A6A3",
"k. c #6CABA4",
"l. c #66A5AA",
"z. c #69AAAB",
"x. c #64A4B3",
"c. c #68ABB7",
"v. c #60A5BC",
"b. c #66A9BE",
"n. c #2F86C1",
"m. c #3086C1",
"M. c #3189C5",
"N. c #348FCD",
"B. c #3A92C6",
"V. c #3790CD",
"C. c #3A92CD",
"Z. c #4291C6",
"A. c #4892C1",
"S. c #4C9AC7",
"D. c #4597CE",
"F. c #4699CE",
"G. c #4A9ACE",
"H. c #5297C1",
"J. c #559AC3",
"K. c #589CC6",
"L. c #539ECE",
"P. c #54A0C5",
"I. c #56A0CE",
"U. c #5CA3CE",
"Y. c #64A7C6",
"T. c #61A6CE",
/* pixels */
"H H H H H H H H H H H H H H H H H H H H H H H H H H H H H H H H H H H H 3.Y.Y.T.Y.Y.Y.T.Y.T.Y.Y.Y.Y.T.Y.T.F H H H H H H H H H H H H H H H H H H H H H H H H H H H H H H H H H H H H ",
"H H H H H H H H H H H H H H H H H H H H H H H H H H H H H H H H H H H H 3.T.T.T.T.T.T.T.T.T.T.T.T.T.T.T.T.F H H H H H H H H H H H H H H H H H H H H H H H H H H H H H H H H H H H H ",
"H H H H H H H H H H H H H H H H H H H H H H H H H H H H H H H H H 8.U.Y.I.B.C.C.N.V.V.N.V.V.V.V.V.V.C.C.C.U.T.T.<.H H H H H H H H H H H H H H H H H H H H H H H H H H H H H H H H H ",
"H H H H H H H H H H H H H H H H H H H H H H H H H H H H H H C H C 8.U.T.I.N.N.N.N.N.N.N.M.N.M.V.N.N.V.V.N.P.T.T.;.H J J H H H H H H H H H H H H H H H H H H H H H H H H H H H H H H ",
"H H H H H H H H H H H H H H H H H H H H H H H H H H H H H J e.@.Z.P.T.T.d.T T Y Y Y T Y T Y T T T R N.N.N.V.C.C.P.Y.b.k.H H H H H H H H H H H H H H H H H H H H H H H H H H H H H H ",
"H H H H H H H H H H H H H H H H H H H H H H H H H H H H H C a.C.V.G.T.T.H.U P P I I I I P I I P P U N.N.N.N.N.N.G.T.T.c.J H H H H H H H H H H H H H H H H H H H H H H H H H H H H H ",
"H H H H H H H H H H H H H H H H H H H H H H H H H H F B.B.B.I.U.U.o.W W E I I I I I I I I I P P P I U U U U U T ` C.C.F.Y.Y.Y.F H H H H H H H H H H H H H H H H H H H H H H H H H H ",
"H H H H H H H H H H H H H H H H H H H H H H H H H H D B.V.V.U.U.T...I I I I I I I I I K I I P U I I I I P I I I ) V.V.D.T.T.Y.F H H H H H H H H H H H H H H H H H H H H H H H H H H ",
"H H H H H H H H H H H H H H H H H H H H H H H H H H S B.N.V.I.T.T...I I P I I I q 0 9 q 9 q 9 9 0 q I I I I I I ) V.V.C.U.T.Y.D H H H H H H H H H H H H H H H H H H H H H H H H H H ",
"H H H H H H H H H H H H H H H H H H H H H H H H H G S B.V.V.I.T.T...I I P U I K 9 9 9 9 9 9 9 9 7 0 K I I I I I ) V.V.D.T.T.Y.D V H H H H H H H H H H H H H H H H H H H H H H H H H ",
"H H H H H H H H H H H H H H H H H H H H H H H 1.p.p.d.L.I.I.' ^ ^ W I I K 0 0 0 9 9 9 9 9 9 7 9 7 7 9 0 0 K I I U T T ( C.D.F.v.c.c.3.H H H H H H H H H H H H H H H H H H H H H H H ",
"H H H H H H H H H H H H H H H H H H H H H H H >.N.V.C.U.T.T.Q I I I I I w 9 7 7 9 9 9 7 9 9 9 9 9 9 9 9 9 K I I P P P T V.N.N.U.T.T.4.H H H H H H H H H H H H H H H H H H H H H H H ",
"H H H H H H H H H H H H H H H H H H H H H H V >.N.N.C.U.T.T.Q I I I I I w 9 9 9 9 7 9 9 7 9 9 9 9 9 9 9 9 K I I I I I T N.N.V.U.T.U.4.H H H H H H H H H H H H H H H H H H H H H H H ",
"H H H H H H H H H H H H H H H H H H H H H V B 5.N.N.C.U.T.U.Q I I I I I K 9 9 7 9 9 9 7 9 9 9 9 9 7 7 9 9 K P I I I I T N.N.V.I.T.T.4.B H H H H H H H H H H H H H H H H H H H H H H ",
"H H H H H H H H H H H H H H H H H H H H ,.q.q.f.L.L.G.[ ] ] Y I I I I I K 9 7 9 7 9 7 R ) ) T 9 9 9 9 9 9 K I I I I I U ~ / ( Z.F.F.h.k.j.6.B H H H H H H H H H H H H H H H H H H H ",
"H H H H H H H H H H H H H H H H H H H V p.V.N.F.T.T.K.Y I I I I I I I I K 7 9 9 9 9 9 { V.V.) 9 9 9 9 9 9 K I I I I I I I P U X.V.V.I.T.U.l.B H H H H H H H H H H H H H H H H H H H ",
"H H H H H H H H H H H H H H H H H H H G e.N.N.F.T.T.J.Y I I I I P K q q q 9 9 q / ) ( n.N.V.m.( ( ( ( ( ) K q q K P I I I I U X.N.N.L.T.T.l.h H J H H H H H H H H H H H H H H H H H ",
"H H H H H H H H H H H H H H H H H H H G i.V.V.F.T.T.J.Y I I I I P q 9 9 9 9 9 q n.N.N.V.N.N.N.N.N.N.N.N.V.P 9 9 w P I I I I U m.N.N.L.T.T.c.V V H V H H H H H H H H H H H H H H H H ",
"H H H H H H H H H H H H H H H H H H G l i.N.N.F.T.T.J.Y I I I I P q 9 9 K ( ) ) N.N.N.~ L L K I L T N.N.N.P 7 9 w P P I I I U O.N.N.I.U.T.z.B V H H H H H H H H H H H H H H H H H H ",
"H H H H H H H H H H H H H H H H H H G l i.N.V.F.T.T.J.Y I I I I P w 9 9 P N.N.V.N.N.N.e > > > > > 3 M.N.N.P 9 7 w P I P I I U n.N.V.L.T.T.l.j B V H H H H H H H H H H H H H H H H H ",
"H H H H H H H H H H H H H H H H H G B j i.V.V.F.T.T.J.W I I I I P ! ( / ) V.N.M.U L L 8 > > > > > 1 T ~ ~ ) / / T I I I I I U X.N.N.L.T.T.l.B B H H H H H H H H H H H H H H H H H H ",
"H H H H H H H H H H H H H H H H H G B j i.V.V.F.T.T.J.U I I I I I _ N.N.V.V.N.n.3 > > # > > > > > < 6 9 7 X.N.N.) I I I I I U n.N.N.L.T.T.l.h B V H H H H H H H H H H H H H H H H H ",
"H H H H H H H H H H H H H H H H H G B h h.G.F.A.....[ U I I I I K { N.N.M.R ~ T 1 > > > , > > > > < 6 9 9 X.N.N.) I I I I I U / ( ) s.G.D.K.k.8.9.H H H H H H H H H H H H H H H H H ",
"H H H H H H H H H H H H H H H H H G B j l.T.T.y.I I I I I I I I I { N.V.X.9 9 6 < > > > > > > > > < 6 7 9 X.N.N.) P I I I I I P I P { N.N.F.T.T.b.H H H H H H H H H H H H H H H H H ",
"H H H H H H H H H H H H H H H H H 1.>.>.P.T.T.y.I I I I I I w w w _ N.N.| 9 9 7 < > > > > > > > > < 5 7 9 R ( ) T w K K I I I I I I } N.N.F.T.T.c.H H H H H H H H H H H H H H H H H ",
"H H H H H H H H H H H H H H H H H o.N.N.I.T.T.u.I I I I I P 0 9 9 / N.N.| 9 7 7 < > > > > > > > > < 7 9 9 9 9 9 9 7 9 9 I I I I I I } V.N.D.T.T.b.H H H H H H H H H H H H H H H H H ",
"H H H H H H H H H H H H H H H H V o.N.N.L.T.T.y.I I I I P I T T T R _ _ / 9 7 6 < > > # # @ # > > < 7 9 9 9 9 7 7 9 7 0 I I I I I I } N.N.D.U.T.b.l H H H H H H H H H H H H H H H H ",
"H H H H H H H H H H H H H H H H B o.N.N.L.T.T.y.I I I I P U X.V.N./ 9 9 9 9 7 6 < > > @ o o O > > < 7 9 9 9 9 9 9 9 9 9 I I I K I K } N.N.D.T.T.b.j H H H H H H H H H H H H H H H H ",
"H H H H H H H H H H H H H H H H k o.N.N.I.T.T.y.I I I I I U X.V.N.~ 9 6 6 4 4 2 < > > O o o O > > , 2 4 4 6 7 7 9 9 7 q I I I I I I } N.N.D.T.T.b.j l G H H H H H H H H H H H H H H ",
"H H H H H H H H H H H H H H H H g o.N.V.I.T.T.y.I I I I I U O.N.N.R 9 9 5 > > > > > > O o o @ > > > > > , 5 9 9 7 9 7 9 I I I I I I } N.N.D.T.T.b.j l G H H H H H H H H H H H H H H ",
"H H H H H H H H H H H H H H H H s o.V.N.I.T.T.y.I I I I I U ) { } T 9 9 5 > > > # # # O o o O # # # > > > 4 9 7 9 9 9 0 I I I I I I } N.N.D.T.T.c.h l G H H H H H H H H H H H H H H ",
"H H H H H H H H H H H H H H H H g o.N.N.I.T.T.y.I I I I I I 0 7 9 9 9 9 5 > > > o o o o o o o o o o > > > 5 9 9 9 9 9 9 I I I I I I } V.V.D.T.T.b.h l G H H H H H H H H H H H H H H ",
"H H H H H H H H H H H H H H G B B o.N.N.U.T.U.y.I I U / / R q 7 9 9 9 9 5 > > > o o o o o o o o o o @ # > 5 9 9 K U U Y P P P P I I { N.N.D.T.T.Y.h B B H H H H H H H H H H H H H H ",
"H H H H H H H H H H H H H H G j g +.N.N.I.T.T.y.I I T M.N.M.P 7 9 9 9 9 5 > > # o o o o o o o o o o # > > 5 9 9 ( N.N.X.P P P P I I { N.N.D.T.T.Y.j B G H H H H H H H H H H H H H H ",
"H H H H H H H H H H H H H H H B h o.N.N.I.U.T.u.I I T N.N.M.P 7 9 9 9 9 5 > > > o o o o o o o o o + > > > 5 9 9 R X.| } R R T I I I } N.N.D.U.T.b.h B B H H H H H H H H H H H H H H ",
"H H H H H H H H H H H H H H B B h o.N.N.U.T.U.y.I I T M.N.N.I 9 9 9 9 9 5 > > # o o o o o o o o o + > > > 5 9 7 9 9 9 P N.N.N.T I U } N.N.D.T.T.b.g B G H H H H H H H H H H H H H H ",
"H H H H H H H H H H H H H H G l h o.N.V.I.U.T.y.I I U n.M.n.I 7 9 9 9 9 5 > > > o o o o o o o o o o # , > 5 9 9 9 9 9 P N.N.N.Y I I { N.N.D.T.T.b.g l G H H H H H H H H H H H H H H ",
"H H H H H H H H H H H H H H G B g o.N.N.U.T.T.u.I I I I I I 9 7 9 9 9 9 5 > > # o o o o o o o o o + > > > 5 9 7 9 9 9 P N.N.M.T I I } N.N.D.T.T.b.j j G H H H H H H H H H H H H H H ",
"H H H H H H H H H H H H H H B B M o.N.V.I.U.U.y.I I I I I I K q q 9 9 9 5 > > > o o o o o o o o o o > > > 5 7 9 9 9 9 P N.N.N.T I I | N.V.D.T.T.b.j j G H H H H H H H H H H H H H H ",
"H H H H H H H H H H H H H H G B j o.N.N.U.T.U.y.I I I I I U X.N.N.R 9 9 5 > > > o o o o o o o o o o > > > 5 7 9 9 9 9 U N.N.M.T I U } V.V.D.T.T.b.g B G H H H H H H H H H H H H H H ",
"H H H H H H H H H H H H H H B B j o.N.V.I.T.T.y.I I I I I U X.N.N.R 9 9 5 > > > + o o o o o o o o O > > < 4 9 9 9 9 9 P N.N.M.T I I } N.V.D.T.T.b.j l G H H H H H H H H H H H H H H ",
"H H H H H H H H H H H H H H B B g o.N.N.I.T.T.y.I I I U I U n.N.N./ 9 9 5 > > # + o o o o o o o o o > > , 4 9 9 9 9 9 P N.N.N.T I I } N.N.D.T.T.b.g B G H H H H H H H H H H H H H H ",
"H H H H H H H H H H H H H H H B j o.V.N.I.T.T.y.I I I I I U X.N.N./ 9 9 5 > > # + o o o o o o + o O > > > 4 9 9 9 9 9 P N.N.M.T I I } N.N.D.U.T.b.g l G H H H H H H H H H H H H H H ",
"H H H H H H H H H H H H H H V B g o.N.N.I.T.T.y.I I I I I U n.N.N.R 9 9 5 > > > > > > + o o @ > > > > , , 4 9 9 9 7 9 P N.N.N.T I K } N.N.F.U.T.b.j B G H H H H H H H H H H H H H H ",
"H H H H H H H H H H H H H H B B h o.N.N.I.T.T.y.I I I I I U m.N.N.( q q 6 , , > > > > @ + o @ > > > , > < 4 9 9 9 9 9 P N.N.N.T I I } N.N.D.T.T.b.j l G H H H H H H H H H H H H H H ",
"H H H H H H H H H H H H H G V B h +.N.N.I.T.T.y.I I I I I U O.N.N.N.N.M.X.7 6 5 , > > + o o @ > > , 4 4 9 9 9 9 9 9 9 P N.N.N.T I I } N.N.D.T.T.b.g l G H H H H H H H H H H H H H H ",
"H H H H H H H H H H H H H H V B h o.N.N.I.T.T.y.I I I I I U O.N.N.N.N.N.X.9 9 6 , > > @ o + @ , , < 9 9 9 4 9 9 9 9 9 P N.N.M.T I I } N.N.D.T.T.c.j l G H H H H H H H H H H H H H H ",
"H H H H H H H H H H H H J G V B h o.N.N.I.T.T.y.I I I I I I q K q { N.N.M.X.M.X.1 > > > # # e X.X.{ K 9 9 9 9 9 9 9 9 P N.N.N.T I I } N.N.D.T.T.b.j l G H H H H H H H H H H H H H H ",
"H H H H H H H H H H H H H H H H h o.N.N.L.T.T.y.I I I I I I 0 9 9 / N.N.N.N.N.n.3 > > > > > L N.N.X.K 4 q 9 9 9 9 9 9 P N.N.M.T I I } N.N.D.T.T.Y.g l G H H H H H H H H H H H H H H ",
"H H H H H H H H H H H H H H G G j b b p g.T.T.y.I I I I I I K K K K q K T N.N.N.m.m.m.m.m.m.! 1 1 2 4 9 4 K 9 9 R M.M.| T T T P I I } N.N.D.T.T.b.j l G H H H H H H H H H H H H H H ",
"H H H H H H H H H H H H H H H l h f u t x.T.T.y.I I I I I I I I P q 9 9 P N.N.N.N.N.V.N.N.N.! > , < 9 K K 4 4 K ( N.N.| U P P P K I } N.N.F.T.T.b.j G G H H H H H H H H H H H H H H ",
"H H H H H H H H H H H H H H G G j g i y i.C.C.L.K.K.s.U I I I I U q 9 9 9 K P U M.V.V.L 3 3 2 > > 2 4 4 4 9 q 4 ( N.N.n.U P P | m.m.G.U.U.x.b Z N g j G H H H H H H H H H H H H H H ",
"H H H H H H H H H H H H H H H l j g f i w.N.V.F.T.T.J.Y I I I I P q 9 9 4 q 0 K m.V.V.L > > > > > , 9 K 4 9 4 K / N.N.n.P I U n.N.N.L.T.U.l.t u f g l G H H H H H H H H H H H H H H ",
"H H H H H H H H H H H H H H H G B j g f w.N.N.F.T.T.J.Y I I I I P q 9 9 0 q 9 4 4 4 4 3 > > > > > < 4 4 9 { | | ) ~ T T P P U n.N.N.L.T.T.l.y i g j B G H H H H H H H H H H H H H H ",
"H H H H H H H H H H H H H H H H B B j g w.N.V.F.T.T.J.Y I I I I I q 9 9 0 4 0 4 , , , , > > , 1 > 1 4 K 9 | N.N.) I I I I I U n.N.N.L.T.T.l.u f g j G G H H H H H H H H H H H H H H ",
"H H H H H H H H H H H H H H H G V B B h i.N.N.F.T.T.J.Y I I I I I ) | n.} 4 0 0 4 4 4 1 > > 1 4 4 4 K 4 9 K P P I I I I I I U n.N.N.L.T.T.l.i g j j G G H H H H H H H H H H H H H H ",
"H H H H H H H H H H H H H H H H H G B h i.N.N.F.T.T.K.Y I I I I I _ N.N.| 9 9 9 4 q 9 1 > > 1 4 q 4 9 9 q 4 0 4 w I I I I I U n.N.V.L.T.T.l.g h H H H H H H H H H H H H H H H H H H ",
"H H H H H H H H H H H H H H H H H G G j i.N.N.G.T.T.H.Y I I I I I T ~ / / | { _ K q 9 2 > > w { { / K q 4 K K K K I I I I I U n.N.N.L.T.T.l.i B H H H H H H H H H H H H H H H H H H ",
"H H H H H H H H H H H H H H H H H G G h i.V.N.G.T.T.H.Y I I I I I I I I R N.N.M.K 4 4 1 > > K N.N.n.K 4 K K I I I I I I I I U X.N.N.I.T.T.l.B B H H H H H H H H H H H H H H H H H H ",
"H H H H H H H H H H H H H H H H G G B j m $.c r.D.D.D.A.u.u.W I I I I I U T U T { | { ) / / ~ T T U 9 q 4 K I I I I I T _ | | D.I.L.j.A <.Z h B H H H H H H H H H H H H H H H H H H ",
"H H H H H H H H H H H H H H H H H H G h g i y $.N.N.Z.I.T.U.^ L P I I I K q 9 K n.N.N.N.N.N.) 9 4 q 9 9 K K K I I I I T N.N.N.I.T.T.<.t u s j B V H H H H H H H H H H H H H H H H H ",
"H H H H H H H H H H H H H H H H J G G j g i y $.N.N.D.U.T.T.^ L I I I I K 4 9 9 U T T T T T P 9 K 4 9 9 4 K I I I I I T N.N.V.I.T.T.2.u i g j B H H H H H H H H H H H H H H H H H H ",
"H H H H H H H H H H H H H H H H G G G j g f i $.V.V.D.I.T.U.! I I I P P K 9 9 9 9 9 9 9 9 9 9 9 9 q 9 9 4 I I I I I I T N.N.D.L.T.T.2.i f h k B H H H H H H H H H H H H H H H H H H ",
"H H H H H H H H H H H H H H H H G G G G G g i m #.%.t.D.G.G.+.0.0.~ P P P w w q 9 9 9 9 9 9 9 9 9 4 K K K I I I ! _ )  .G.L.L.t.5.5.N i g j B V H H H H H H H H H H H H H H H H H H ",
"H H H H H H H H H H H H H H H H H H H H l j g a y t z B.V.V.I.T.T.[ I I I I I I 0 0 7 7 7 7 9 9 9 0 I I I I I I ) N.N.C.T.T.Y.n y u i g j j G H H H H H H H H H H H H H H H H H H H ",
"H H H H H H H H H H H H H H H H H H H H G j h f i y x B.N.V.U.T.T.0.I I I I I I q q q q K q q q q q I I I I I I ) N.N.D.T.T.Y.n y i f j j G G H H H H H H H H H H H H H H H H H H H ",
"H H H H H H H H H H H H H H H H H H H H H G j h f i v B.V.C.I.T.T.[ I I I I I I I I I I I I I I U I U I I U I I ( N.N.D.T.T.T.b i f g j G G H H H H H H H H H H H H H H H H H H H H ",
"H H H H H H H H H H H H H H H H H H H H H G l j g f p =.&.*.S.G.G.A.0...] I I I I I I I I I I I I U / ( ( ( ( / +.G.G.K.5.5.5.b f g j G G H H H H H H V H H H H H H H H H H H H H H ",
"H H H H H H H H H H H H H H H H H H H H H H H G j g f u t p a.V.V.G.T.T.H.U I I I I I I I I I I I T N.N.N.N.N.N.G.T.T.c.i y u f h j B V G H H H H V V B H H H H H H H H H H H H H H ",
"H H H H H H H H H H H H H H H H H H H H H H H H B j g i u i -.*.*.f.G.L.A./ / / / / / ( / / / ( / ( N.N.N.D.D.D.g.:.j.6.i u i g j l V G G H H H H d s s H H H H H H H H H H H H H H ",
"H H H H H H H H H H H H H H H H H H H H H H H H G B h g i u t t r *.N.V.N.N.V.N.V.V.V.V.V.V.V.V.N.N.N.N.N.U.U.T.c r t r u i f j l B H H H H H H H d s s H H H H H V H H H H H H H H ",
"H H H H H H H H H H H H H H H H H H H H H H H H B B l h s i u t r c %.%.w.D.G.G.D.G.F.D.F.D.F.F.G.G.G.D.D.t.:.7.m y y u i g h l B G G G V B V H H d s s H H H V V V H H H H H H H H ",
"H H H H H H H H H H H H H H H H H H H H H H d s s l B B h g i i y t r r n U.T.T.T.T.T.T.T.T.T.T.T.T.T.T.T.n r t t y u f g h j B G H H j s s k H H h s s H H V s d k H H H H H H H H ",
"H H H H H H H H H H H H H H H H H H H H H J h s s G G B B h h f i y u y n l.l.l.l.l.l.l.l.l.l.l.x.l.l.l.l.n t u u f f h j j B G G H H k s s V V H s s s H V V s d l H H H H H H H H ",
"H H H H H H H H H H H H H H H H V B k H H H d s s B H H h h h j f f u u u t t r t r r r r r r r r r r r t u u i f f h B B G H H H H H B k k k k k k k h B k k k k k H H H H H H H H ",
"H H H H H H H H H H H H H H H H k s s k H H d s s G H G s s i B B B g f i u u t r t t t t t y y t t t y u i f f h h B G G G H H H H H H H V k s s V V V s d d H H H H H H H H H H H ",
"H H H H H H H H H H H H H H H H V s s k V H h s s V V V s s s V G B B g g f i u u u u i y u u u u i u u f g g B B G G H G H H H H H H H H H h s s V V H s s d V H H H H H H H H H H ",
"H H H H H H H H H H H H H H H H V k k B k k B k k B h k B h B V G G B B B g g f g f f f f f g f f f f f g B B B G G G H J H H H H H H H H H V k k k k k k k B H H H H H H H H H H H ",
"H H H H H H H H H H H H H H H H H H H k s s V H V d s h H H V J H H G G B B h B h h j j h j h h h h h B B B B G G H H H H H H H H H H H H H H H H s s s H H H H H H H H H H H H H H ",
"H H H H H H H H H H H H H H H H H V V k s s V H H s s h H H H H H G G G G B G B B B B B B B B B G G G B B G G H G J H H H H H H H H H H H H H H H h s s H H H H H H H H H H H H H H ",
"H H H H H H H H H H H H H H H H H H H V k B k k k k k V H H H H H H H H H H H H G G H G H H V H H H G H H H H H H H H H H H H H H H H H H H H H H V V J H H H H H H H H H H H H H H ",
"H H H H H H H H H H H H H H H H H H H H H H d s s V H H H H H H H H H H H H H H H H H H H H H H H H H H H H H H H H H H H H H H H H H H H H H H H H H H H H H H H H H H H H H H H H ",
"H H H H H H H H H H H H H H H H H H H H H H k s s V H H H H H H H H H H H H H H H H H H H H H H H H H H H H H H H H H H H H H H H H H H H H H H H H H H H H H H H H H H H H H H H H ",
"H H H H H H H H H H H H H H H H H H H H H H k V B H H H H H H H H H H H H H g u u u u u u u u u u u u g H H H H H H H H H H H H H H H H H H H H H H H H H H H H H H H H H H H H H H ",
"H H H H H H H H H H H H H H H H H H H H H H H H H H H H H H H H H H H H H H & . . .   . . .   . . . . = H H H H H H H H H H H H H H H H H H H H H H H H H H H H H H H H H H H H H H ",
"H H H H H H H H H H H H H H H H H H H H H H H H H H H H V k l V j B B j B B %                         * B j B j G l G l l G H H H H H H H H H H H H H H H H H H H H H H H H H H H H ",
"H H H H H H H H H H H H H H H H H H H H H H H H H H H H -                                                                 : G H H H H H H H H H H H H H H H H H H H H H H H H H H H ",
"H H H H H H H H H H H H H H H H H H H H H H H H H H H H ; X X X X X X X X X                           . X X X X X X X X X : G H H H H H H H H H H H H H H H H H H H H H H H H H H H ",
"H H H H H J H H H H H H H H H H H H H H H H H H H H V H B g g g g g g g f i $                         * i g g g j g g g g j G G H H H H H H H H H H H H H H H H H H H H H H H H H H ",
"H H H H H J H J H H H H J H H H H H H H H J H H H V V V B j j h h h h h g g $                         * g g h h j G j j j l G G H H H H H H H J J H H H H H H H H H H H H H H H H H "
};
