/* XPM */
static char *portal_21674398316[] = {
/* columns rows colors chars-per-pixel */
"90 90 148 2 ",
"   c #010100",
".  c #050804",
"X  c #080C07",
"o  c #0E1C2B",
"O  c #0D1F30",
"+  c #0D202F",
"@  c #0D2133",
"#  c #0B263B",
"$  c #2B3E22",
"%  c #2F4324",
"&  c #304626",
"*  c #364E2B",
"=  c #3B552E",
"-  c #415D32",
";  c #476637",
":  c #4A6B39",
">  c #0A2B43",
",  c #0A2F49",
"<  c #0A304B",
"1  c #0C3552",
"2  c #0D3B5B",
"3  c #103855",
"4  c #123C5B",
"5  c #0C3F60",
"6  c #13405F",
"7  c #0C4265",
"8  c #0D466B",
"9  c #0D486F",
"0  c #0D4970",
"q  c #104D76",
"w  c #104F78",
"e  c #1A5077",
"r  c #12517B",
"t  c #1C537A",
"y  c #699752",
"u  c #6DA558",
"i  c #6FA859",
"p  c #73A65A",
"a  c #74AC5C",
"s  c #7AAF5E",
"d  c #77B05E",
"f  c #78B15F",
"g  c #7CB461",
"h  c #7FB863",
"j  c #7EB96A",
"k  c #6EAF7F",
"l  c #72AC7F",
"z  c #74B377",
"x  c #7BB674",
"c  c #7DB974",
"v  c #7BB77B",
"b  c #82BB65",
"n  c #80BA69",
"m  c #155681",
"M  c #1C5780",
"N  c #165986",
"B  c #185986",
"V  c #1A5C8B",
"C  c #1F608D",
"Z  c #1D6393",
"A  c #1F699B",
"S  c #21628E",
"D  c #226491",
"F  c #286A96",
"G  c #206798",
"H  c #216B9C",
"J  c #2B6C99",
"K  c #246FA2",
"L  c #2472A6",
"P  c #2675AA",
"I  c #2877AE",
"U  c #2A79AF",
"Y  c #3376A2",
"T  c #3678A4",
"R  c #387CA7",
"E  c #2779B0",
"W  c #297BB3",
"Q  c #2B7FB8",
"!  c #307EB2",
"~  c #3D80AB",
"^  c #2E84BE",
"/  c #3A8BB3",
"(  c #3084BE",
")  c #3A87B9",
"_  c #3E8CBF",
"`  c #3F96BE",
"'  c #659D84",
"]  c #5CA697",
"[  c #5AA499",
"{  c #6AA487",
"}  c #6AAD85",
"|  c #63A78A",
" . c #68A58B",
".. c #66AB89",
"X. c #79B580",
"o. c #76B38C",
"O. c #60A892",
"+. c #70AF9E",
"@. c #73B295",
"#. c #71B09B",
"$. c #4184AF",
"%. c #4C9DAC",
"&. c #509FA7",
"*. c #4589B3",
"=. c #488CB6",
"-. c #4A8EB8",
";. c #4598B6",
":. c #499AB3",
">. c #4297BB",
",. c #4A90BC",
"<. c #4C9CB8",
"1. c #5195BF",
"2. c #519FBB",
"3. c #55A1A3",
"4. c #52A0B7",
"5. c #5AA2B3",
"6. c #58A2BE",
"7. c #65A5A5",
"8. c #6DAEA4",
"9. c #65A5AA",
"0. c #65A9AB",
"q. c #6BACAD",
"w. c #65A9B0",
"e. c #68ABB6",
"r. c #61A7BC",
"t. c #66A9BE",
"y. c #2F86C1",
"u. c #3086C1",
"i. c #3189C5",
"p. c #348FCD",
"a. c #3A92C6",
"s. c #3790CD",
"d. c #3A92CD",
"f. c #4291C6",
"g. c #4892C1",
"h. c #4C9AC7",
"j. c #4597CE",
"k. c #4699CE",
"l. c #4A9ACE",
"z. c #5297C1",
"x. c #559AC3",
"c. c #589CC6",
"v. c #539ECE",
"b. c #54A0C5",
"n. c #56A0CE",
"m. c #5CA3CE",
"M. c #64A7C6",
"N. c #61A6CE",
/* pixels */
"b b b b b b b b b b b b b b b b b b b b b b b b b b b b b b b b b b b b X.M.M.N.M.M.N.M.M.N.N.M.M.N.M.M.M.v n b b b b b b b b b b b b b b b b b b b b b b b b b b b b b b b b b b b ",
"b b b b b b b b b b b b b b b b b b b b b b b b b b b b b b b b b b b b X.N.N.m.N.N.N.N.N.N.N.N.N.N.N.N.m.v b b b b b b b b b b b b b b b b b b b b b b b b b b b b b b b b b b b b ",
"b b b b b b b b b b b b b b b b b b b b b b b b b b b b b b b b b +.M.N.b.s.d.d.d.s.s.s.d.d.d.s.s.s.s.d.d.m.N.N.{ b b b b b b b b b b b b b b b b b b b b b b b b b b b b b b b b b ",
"b b b b b b b b b b b b b b b b b b b b b b b b b b b b b b j h j 8.N.N.n.p.p.s.p.i.p.i.p.i.p.i.p.p.p.s.s.n.N.m. .j n b b b b b b b b b b b b b b b b b b b b b b b b b b b b b b b ",
"b b b b b b b b b b b b b b b b b b b b b b b b b b b b b n %.` >.c.N.N.2.Z Z V Z V D Z V Z Z Z Z A i.s.p.d.d.d.b.M.t.8.n b b b b b b b b b b b b b b b b b b b b b b b b b b b b b ",
"b b b b b b b b b b b b b b b b b b b b b b b b b b b b b j ;.s.p.l.N.N.z.V B B B B B B V B B B N C i.p.p.p.p.p.l.N.N.e.n b b b b b b b b b b b b b b b b b b b b b b b b b b b b b ",
"b b b b b b b b b b b b b b b b b b b b b b b b b b z a.a.a.m.m.m./ D D D B B B B B B B B B N B N B V V C V V V U d.s.j.M.M.t.c b b b b b b b b b b b b b b b b b b b b b b b b b b ",
"b b b b b b b b b b b b b b b b b b b b b b b b b b z a.s.s.m.m.N.R B B B B B B B B B m B B N V N B B B V N V N P s.p.j.N.N.N.v b b b b b b b b b b b b b b b b b b b b b b b b b b ",
"b b b b b b b b b b b b b b b b b b b b b b b b b b l a.s.s.n.N.N.R V B B V B B q 0 w q 0 0 w 0 0 q B B B B B B P p.p.d.N.N.M.v b b b b b b b b b b b b b b b b b b b b b b b b b b ",
"b b b b b b b b b b b b b b b b b b b b b b b b b b z a.p.s.n.N.N.$.B B B B B m 0 0 0 0 0 0 0 0 9 q N B B B B N P s.p.j.N.N.M.v b h b b b b b b b b b b b b b b b b b b b b b b b b ",
"b b b b b b b b b b b b b b b b b b b b b b b | ;.;.<.v.n.v.Y F J D B B m q q q 0 0 0 0 0 9 0 0 9 9 0 w q m B B V Z G L j.d.j.r.t.e.v b b b b b b b b b b b b b b b b b b b b b b b ",
"b b b b b b b b b b b b b b b b b b b b b b b O.p.p.j.m.N.N.F B V B B B r 0 9 0 0 0 0 0 0 0 0 0 0 0 0 9 9 m B B N B B Z p.s.d.n.N.N.o.b b b b b b b b b b b b b b b b b b b b b b b ",
"b b b b b b b b b b b b b b b b b b b b b b b O.p.p.d.N.N.N.F B B B B B m 9 0 0 0 0 0 9 0 0 0 0 0 0 0 0 9 m N B B B V Z p.p.s.m.N.N.@.b b b b b b b b b b b b b b b b b b b b b b b ",
"b b b b b b b b b b b b b b b b b b b b b b b O.p.p.d.m.N.N.F B B B B B m 9 0 0 0 9 0 9 9 0 0 0 0 9 9 0 9 m B B B B B Z i.p.s.m.N.N.o.b b b b b b b b b b b b b b b b b b b b b b b ",
"b b b b b b b b b b b b b b b b b b b b [ &.&.4.v.v.h.T Y Y C B B B B B m 0 0 0 0 9 0 A P P Z 0 0 0 0 0 9 m B B B B B V H K L a.j.j.r.0.7. .g b b b b b b b b b b b b b b b b b b b ",
"b b b b b b b b b b b b b b b b b b b b :.p.p.l.N.N.x.S B B B B B B B B r 0 0 0 0 0 0 E p.p.P 0 0 9 0 0 9 m B B B B B B B B V u.s.s.c.N.N.9.g b b b b b b b b b b b b b b b b b b b ",
"b b b b b b b b b b b b b b b b b b b b :.s.s.k.N.N.x.C B B B V N r r r w 0 0 w K L P y.p.p.u.P L L L P P m w w m N B B N B V ( s.p.v.N.N.w.f b b b b b b b b b b b b b b b b b b b ",
"b b b b b b b b b b b b b b b b b b b b :.s.s.k.N.N.x.C B B B B N r 0 0 0 0 0 r y.p.p.p.p.p.p.p.p.p.p.p.s.N 0 0 r N B B B B V y.p.p.v.N.N.w.b b b b b b b b b b b b b b b b b b b b ",
"b b b b b b b b b b b b b b b b b b b b :.p.p.k.N.N.x.C B B B B N w 0 0 r L L I i.p.p.J M M B m M Z p.p.p.N 0 0 r N N B B B V ^ p.p.v.N.N.q.b b b b b b b b b b b b b b b b b b b b ",
"b b b b b b b b b b b b b b b b b b b b :.p.s.k.N.N.x.C B B B B N r 0 0 N p.p.p.p.p.p.e > , > > > 4 i.p.p.N 9 9 r N B B B B V u.p.p.v.N.N.e.b b b b b b b b b b b b b b b b b b b b ",
"b b b b b b b b b b b b b b b b b b b b :.p.p.k.N.N.x.C B V B B B G L K P s.s.i.C M V 6 > > > > > 1 Z H H P K K Z N B B B B V ^ s.p.v.N.N.q.b b b b b b b b b b b b b b b b b b b b ",
"b b b b b b b b b b b b b b b b b b b b :.p.p.k.N.N.x.C B B B B B I p.p.p.p.p.y.4 > > > > > > > > < 8 0 9 ^ p.p.P B B B B B V u.p.p.v.N.N.e.b b b b b b b b b b b b b b b b b b b b ",
"b b b b b b b b b b b b b b b b b b b b 5.l.l.g.~ ~ T V B B B B V I p.p.y.H H D 1 > > > > > > > > < 8 9 0 ^ p.p.P B B B B B V K L L _ l.l.6.8.#.@.b b b b b b b b b b b b b b b b b ",
"b b b b b b b b b b b b b b b b b b b b e.N.N.*.B B B B B B B B N E p.p.^ 0 0 8 , > , > > > > > > < 8 9 0 ^ p.p.P B B B B B B N B B W s.p.k.N.N.e.b b b b b b b b b b b b b b b b b ",
"b b b b b b b b b b b b b b b b b | O.O.M.N.N.*.N N B B B m r r w I p.p.Q 0 0 9 , > > > > > > > > , 8 0 0 A P L Z r m m N B B B B B W p.p.j.N.N.e.b b b b b b b b b b b b b b b b b ",
"b b b b b b b b b b b b b b b b b / s.s.v.N.N.*.N V B B B N q 0 0 K p.p.Q 0 0 8 , > > > > > > > > , 8 0 0 0 0 0 0 9 0 0 B B B B B B W p.p.j.N.N.M.b b b b b b b b b b b b b b b b b ",
"b b b b b b b b b b b b b b b b j / s.s.n.N.N.*.N B B B V V Z Z Z H P E K 0 0 8 < > > # # # # > > < 8 0 0 0 0 0 0 0 0 q B B B B B B W p.p.j.N.N.t.b b b b b b b b b b b b b b b b b ",
"b b b b b b b b b b b b b b b b h / p.p.v.N.N.*.B B B B N N ^ p.p.H 0 0 0 0 0 8 < > > @ o o O > > < 8 0 0 0 0 0 9 0 9 0 B B B B B N W p.p.j.N.N.t.b b b b b b b b b b b b b b b b b ",
"b b b b b b b b b b b b b b b b h / p.p.n.m.N.*.B B B B B V y.s.p.K 0 8 8 5 5 2 > > > @ o o O > > , 2 5 5 9 9 0 0 9 9 q B B B B B B W p.p.j.N.N.t.b b b b b b b b b b b b b b b b b ",
"b b b b b b b b b b b b b b b b g / p.p.n.N.N.*.B B B B B V y.s.p.A 0 0 7 > > > > > > O o O O > > > > > , 5 0 0 0 0 9 0 B B B B B B W p.s.l.N.N.t.b b b b b b b b b b b b b b b b b ",
"b b b b b b b b b b b b b b b b f / p.p.n.N.N.*.B B B B B V L W E Z 0 0 7 > > > # # # O o o o # # > > > > 5 0 0 0 9 9 q N B B B B B W s.p.j.N.N.t.b b b b b b b b b b b b b b b b b ",
"b b b b b b b b b b b b b b b b h / p.s.n.N.N.*.B B B B B B 0 0 0 0 0 0 7 > > > o o o o o o o o o o > > , 5 0 9 0 0 9 q m B B B B N W p.p.j.N.N.t.b b b b b b b b b b b b b b b b b ",
"b b b b b b b b b b b b b b b b b ) p.p.n.N.N.*.B B V G H H q 0 0 0 0 0 7 > > # o o o o o o o o o o @ # > 7 0 0 m V V V N V N N B B E p.p.j.N.N.M.b b b b b b b b b b b b b b b b b ",
"b b b b b b b b b b b b b b b b b ) p.p.n.N.N.*.B B Z p.p.i.N 0 0 0 0 0 7 > > > o o o o o o o o o o > > > 5 0 0 L p.p.^ N N N N B B E p.s.j.N.N.M.b b b b b b b b b b b b b b b b b ",
"b b b b b b b b b b b b b b b b b / s.p.n.N.N.*.B B Z i.p.p.N 0 0 0 0 0 7 > > > o o o o o o o o o + > > > 7 0 0 A ^ Q Q G G Z V B B W p.p.j.N.N.M.b b b b b b b b b b b b b b b b b ",
"b b b b b b b b b b b b b b b b b / s.s.n.N.N.*.B B Z p.p.i.N 9 0 0 0 0 7 > > # o o o o o o o o o + # > > 7 0 0 0 0 0 N p.p.i.Z B V W p.p.j.m.N.t.b b b b b b b b b b b b b b b b b ",
"b b b b b b b b b b b b b b b b b / s.s.n.N.N.*.B B Z y.u.u.N 9 0 0 0 0 7 > > > o o o o o o o o o + # > > 7 0 0 0 0 0 N p.p.p.Z B B W p.p.j.N.N.t.b b b b b b b b b b b b b b b b b ",
"b b b b b b b b b b b b b b b b b ) p.s.n.N.N.*.B B B B B B q 9 0 0 0 0 7 > > # o o o o o o o o o o > > > 7 0 0 0 0 0 V p.p.p.Z B B W s.p.j.N.N.t.b b b b b b b b b b b b b b b b b ",
"b b b b b b b b b b b b b b b b h / p.p.n.N.N.*.B B B N B B r w w 0 0 0 7 > > > o o o o o o o o o + > > > 7 0 0 0 0 0 N p.p.i.Z B B Q p.p.j.N.N.t.b b b b b b b b b b b b b b b b b ",
"b b b b b b b b b b b b b b b b h / p.p.v.N.m.*.B B B B B V u.p.s.A 0 0 7 > > > o o o o o o o o o o > > > 7 0 0 9 0 0 V p.p.i.Z B B W p.p.j.N.N.t.b b b b b b b b b b b b b b b b b ",
"b b b b b b b b b b b b b b b b b / p.p.n.N.N.*.B B B B B V y.p.p.H 0 0 7 > > > + o o o o o o o o O > > < 5 0 0 0 0 0 N p.p.i.Z B B W p.p.j.N.N.t.b b b b b b b b b b b b b b b b b ",
"b b b b b b b b b b b b b b b b b / p.p.n.N.N.*.B B B B B V y.p.p.H 0 0 7 > > # + o o o o o o o o o > > , 5 0 0 0 0 0 N p.p.p.Z B B W p.p.j.N.N.t.b b b b b b b b b b b b b b b b b ",
"b b b b b b b b b b b b b b b b b / s.p.n.N.N.*.B B B B B V u.p.p.H 0 0 7 > > > + o o o o o o + o o > > > 5 0 0 9 0 9 N p.p.i.Z B B W p.p.j.m.N.t.b b b b b b b b b b b b b b b b b ",
"b b b b b b b b b b b b b b b b b / s.p.n.N.N.*.B B B B B V y.p.p.H 0 0 7 > > > > > > + o o @ > > > > , , 5 0 0 0 0 9 N p.p.p.Z B N W p.p.k.N.N.t.b b b b b b b b b b b b b b b b b ",
"b b b b b b b b b b b b b b b b h / p.p.n.N.N._ B B B B B V u.p.p.P w w 8 , > > > > > @ o o @ > > > , , < 5 0 0 0 0 0 N p.p.p.Z B B W p.p.k.N.N.t.b b b b b b b b b b b b b b b b b ",
"b b b b b b b b b b b b b b b b j / p.p.n.N.m.*.B B B B B V u.p.p.p.p.i.W 9 8 7 , > > + o o @ > > < 5 5 0 5 0 0 0 0 0 N p.p.p.Z B B W p.p.k.N.N.t.b b b b b b b b b b b b b b b b b ",
"b b b b b b b b b b b b b b b b b / s.p.n.N.N.*.B B B B B V u.p.p.p.p.p.^ w 0 8 , > > @ o + @ < < < 0 0 0 0 0 0 0 0 0 N p.p.i.Z B B W p.p.k.N.N.t.b b b b b b b b b b b b b b b b b ",
"b b b b b b b b b b b b b b b b b / s.s.n.N.N.*.B B B B B B w w w E p.p.p.^ y.^ 1 > > > # # t ^ ^ P m 0 0 0 0 0 0 0 0 N p.p.p.Z N N W p.p.j.N.N.t.b b b b b b b b b b b b b b b b b ",
"b b b b b b b b b b b b b b b b b / p.p.v.N.N.*.M B B B B B q 9 5 H p.p.p.p.p.y.4 > > > > > B p.p.Q m 5 0 0 0 0 0 0 0 N p.p.i.Z B B W p.p.j.N.N.t.b b b b b b b b b b b b b b b b b ",
"b b b b b b b b b b b b b b b b b x x x e.N.N.*.V B B B B B m B N m m m V p.p.p.u.u.u.( ( ( G 3 1 5 0 0 0 w 0 0 A i.i.Q Z Z Z N N B W s.p.k.N.N.t.b b b b b b b b b b b b b b b b b ",
"b b b b b b b b b b b b b b b b b b b b e.N.N.*.V M B B B B B B V m 0 0 N p.p.p.p.p.p.p.p.p.G > , < 5 m m 5 m 5 L p.p.Q V N N N N N Q p.p.k.N.N.t.b b b b b b b b b b b b b b b b b ",
"b b b b b b b b b b b b b b b b b b b b :.d.d.l.c.c.,.V B B B B N w 0 0 0 m m V p.p.s.B 4 4 2 > , < 0 5 5 m 5 0 L p.p.y.N N N Q y.y.k.N.n.w.c v v b b b b b b b b b b b b b b b b b ",
"b b b b b b b b b b b b b b b b b b b b ;.p.p.k.N.N.x.C B B B B N r 0 0 0 0 5 m ( d.s.M > > > > > , m 5 m 5 0 0 K p.p.y.V B V y.p.p.v.N.N.q.b b b b b b b b b b b b b b b b b b b b ",
"b b b b b b b b b b b b b b b b b b b b :.p.p.l.N.N.x.C B B B B N w w 5 0 0 r 0 5 5 5 4 > > > > > < 5 5 m E E Q L G G G N N V y.p.p.v.N.N.q.b b b b b b b b b b b b b b b b b b b b ",
"b b b b b b b b b b b b b b b b b b b b :.p.p.k.N.N.x.C B B B B N r 0 0 5 w q q 1 > , > > > , < > < 5 m 5 Q p.p.I N B B B B V ^ p.p.n.N.N.q.b b b b b b b b b b b b b b b b b b b b ",
"b b b b b b b b b b b b b b b b b b b n :.p.p.l.N.N.x.Z B B B B N L ^ y.I m 5 5 5 5 5 3 > > 1 5 5 5 m 5 0 N N N B B B B B B V ^ p.p.n.N.N.q.b b b b b b b b b b b b b b b b b b b b ",
"b b b b b b b b b b b b b b b b b b b b :.p.p.k.N.N.z.C B B B B N I p.p.Q 0 0 0 5 w 0 1 , > 1 5 w 5 0 0 q 5 q 5 r B B B B B V y.p.s.v.N.N.e.b b b b b b b b b b b b b b b b b b b b ",
"b b b b b b b b b b b b b b b b b b b b :.p.p.l.N.m.c.C B B B B N Z H H I E E I m w 0 1 > > m E E K m 0 5 m m m m B B B B B V y.p.p.v.m.m.q.b b b b b b b b b b b b b b b b b b b b ",
"b b b b b b b b b b b b b b b b b b b b :.p.p.l.N.N.c.C B B B B B B B B Z p.p.i.m 5 0 1 > > m p.p.y.m 0 m m B B B B B N B m V ^ s.p.n.N.N.q.b b b b b b b b b b b b b b b b b b b b ",
"b b b b b b b b b b b b b b b b b b b b k { ..3.j.j.j.,.-.=.D B B B B B V Z Z Z P E E P K K H Z Z V 5 m 5 m B B B B B Z Q Q Q j.n.n.8.o.o.v b b b b b b b b b b b b b b b b b b b b ",
"b b b b b b b b b b b b b b b b b b b b b b n O.s.p.f.m.N.N.F B B B B B m w 0 m y.p.p.p.p.p.E 0 5 w 0 0 m m B B B B B G i.p.p.n.N.N.o.b b b b b b b b b b b b b b b b b b b b b b b ",
"b b b b b b b b b b b b b b b b b b b b b b b O.s.p.j.m.N.m.F M B B N N m 5 0 0 V Z Z Z Z Z N w m 5 0 0 5 m B B B B B Z p.p.s.m.N.N.o.b b b b b b b b b b b b b b b b b b b b b b b ",
"b b b b b b b b b b b b b b b b b b b b b b b  .s.s.s.m.N.m.G B B B N N m 0 0 0 0 0 0 0 0 0 0 5 0 w 0 0 5 B B B B B B Z p.p.s.m.N.N.o.b b b b b b b b b b b b b b b b b b b b b b b ",
"b b b b b b b b b b b b b b b b b b b b b b b l [ 7.&.j.l.l._ $.$.H N N N r r w 0 0 0 0 0 0 0 0 0 5 m m m m B B G I P ! l.v.v.9.#.#.v b b b b b b b b b b b b b b b b b b b b b b b ",
"b b b b b b b b b b b b b b b b b b b b b b b b b b z a.s.s.n.m.N.~ V B B B B m q q 9 9 9 9 9 0 0 q B B B B B B P p.p.d.N.N.N.v b b b b b b b b b b b b b b b b b b b b b b b b b b ",
"b b b b b b b b b b b b b b b b b b b b b b b b b b z s.p.s.m.m.N.~ N B B B B B w w w w m w w w w m B B B B B B P p.p.j.N.N.M.c b b b b b b b b b b b b b b b b b b b b b b b b b b ",
"b b b b b b b b b b b b b b b b b b b b b b b b b b z a.s.d.m.N.N.~ B V B B B B B B V B B B B B B B B B B B B B P p.p.j.N.N.N.v b b b b b b b b b b b b b b b b b b b b b b b b b b ",
"b b b b b b b b b b b b b b b b b b b b b b b b b b j ] [ 3.h.l.l.-.$.R Y B B B B B B B B B B B B V K L L L L L ) l.l.c.+.+.+.n b b b b b b b b b b b b b b b b b b b b b b b b b b ",
"b b b b b b b b b b b b b b b b b b b b b b b b b b b b b j ` s.p.l.N.N.1.V B N B B N B B B B B N Z i.p.p.p.p.p.x.N.N.e.n b b b b b b b b b b b b f b f b b b b b b b b b b b b b b ",
"b b b b b b b b b b b b b b b b b b b b b b b b b b b b b j ] 3.3.2.v.v.f.K K K K K K K K K K L K P p.p.p.j.j.j.2.8.8.@.b b b b b b b b b b b b b i u u b b b b b b b b b b b b b b ",
"b b b b b b b b b b b b b b b b b b b b b b b b b b b b b b b b b 3.p.p.p.p.p.p.p.p.p.p.p.p.p.p.p.s.p.p.s.m.N.N.' b b b b b b b b b b b b b b b b i u u b b b b b b b b b b b b b b ",
"b b b b b b b b b b b b b b b b b b b b b b b h h h b b b b b b n } 3.3.%.l.l.l.l.l.l.l.l.k.l.k.l.j.l.l.l.w.8.q.l b b b b b b b b b b b f h h b b i u u b b b h h h b b b b b b b b ",
"b b b b b b b b b b b b b b b b b b b b b b a u u h b b b b b b b b b b X.N.N.N.N.N.N.N.N.N.N.N.m.N.N.N.N.v b b b b b b b b b b b b b a u u f b b a u u b b h u u a b b b b b b b b ",
"b b b b b b b b b b b b b b b b b b b b b h a u u h b b b b b b b b b b v q.q.q.q.q.q.q.q.q.q.q.e.q.q.q.q.v b b b b b b b b b b b b b f u u h b b u u u b b h u u a b b b b b b b b ",
"b b b b b b b b b b b b b b b b h g d b b b i u u h h b d d h b b b b b b b b b b b b b b b b b b b b b b b b b b b b b b b b b b b b f a a f f f a a a d d s a a d b b b b b b b b ",
"b b b b b b b b b b b b b b b b d u u d b b a u u h h h u u d b b b b b b b b b b b b b b b b b b b b b b b b b b b b b b b b b b b b b b b a u u b b b u u a b b b b b b b b b b b ",
"b b b b b b b b b b b b b b b b h u u d h b a u i h b h u u i b b b b b b b b b b b b b b b b b b b b b b b b b b b b b b b b b b b b b b b a u u b b b u u a b b b b b b b b b b b ",
"b b b b b b b b b b b b b b b b h d d g d d d d a d d f f d f b b b b b b b b b b b b b b b b b b b b b b b b b b b b b b b b b b b b b b b h s f a f a d d f b b b b b b b b b b b ",
"b b b b b b b b b b b b b b b b b b h a u u h b b a u i b b b b b b b b b b b b b b b b b b b b b b b b b b b b b b b b b b b b b b b b b b b b b u u u b b b b b b b b b b b b b b ",
"b b b b b b b b b b b b b b b b b b h d u u g b b u u a b b b b b b b b b b b b b b b b b b b b b b b b b b b b b b b b b b b b b b b b b b b b b a u u b b b b b b b b b b b b b b ",
"b b b b b b b b b b b b b b b b b b b h d g a a d g g h h b b b b b b b b b b b b b b b b b b b b b b b b b b b b b b b b b b b b b b b b b b b b h g g b b b b b b b b b b b b b b ",
"b b b b b b b b b b b b b b b b b b b h b b a u u h b b h b b b b b b b b b b b b b b b b b b b b b b b b b b b b b b b b b b b b b b b b b b b b b n b b b b b b b b b b b b b b b ",
"b b b b b b b b b b b b b b b b b b b b b b i u u h b b b b b b b b b b b b b b b b b b b b b b b b b b b b b b b b b b b b b b b b b b b b b b b b b b b b b b b b b b b b b b b b ",
"b b b b b b b b b b b b b b b b b b b b b b h h g h b b b b b b b b b b b b p y y y y y y y y y y y y p b b b b b b b b b b b b b b b b b b b b b b b b b b b b b b b b b b b b b b ",
"b b b b b b b b b b b b b b b b b b b b b b b b b b b b b b b b b b b b b b & .   . .   .   .   . .   = b b b b b b b b b b b b b b b b b b b b b b b b b b b b b b b b b b b b b b ",
"b b b b b b b b b b b b b b b b b b b b b b b b b b b b h g g g f g g f g s &                         * s g g s s g s s g b b b b b b b b b b b b b b b b b b b b b b b b b b b b b ",
"b b b b b b b b b b b b b b b b b b b b b b b b b b b b -                                                                 : b b b b b b b b b b b b b b b b b b b b b b b b b b b b ",
"b b b b b b b b b b b b b b b b b b b b b b b b b b b b ; X X X X X X X X X                           . X X X X X X X X X : b b b b b b b b b b b b b b b b b b b b b b b b b b b b ",
"b b b b b b b b b b b b b b b b b b b b b b b b b b b b h s s s s s s s s s $                         * s s s s s s s s s g b b b b b b b b b b b b b b b b b b b b b b b b b b b b ",
"b b b b b b b b b b b b b b b b b b b b b b b b b b b b b b b b b b b b b b %                         = b b n b b b b b b b b n n b b b b b b b b b b b b b b n b b b b b b b b b b "
};
