/* XPM */
static char *_53s_0_1_2__11674299507[] = {
/* columns rows colors chars-per-pixel */
"90 90 120 2 ",
"   c None",
".  c #000000",
"X  c #080707",
"o  c #0B0A07",
"O  c #0C0C09",
"+  c #100F0E",
"@  c #12110D",
"#  c #141310",
"$  c #181614",
"%  c #1D1B15",
"&  c #1E1B19",
"*  c #201E16",
"=  c #221E1C",
"-  c #25221B",
";  c #28251F",
":  c #2D2A1F",
">  c #272222",
",  c #2A2524",
"<  c #2E2C22",
"1  c #302E24",
"2  c #352E2E",
"3  c #313026",
"4  c #383527",
"5  c #37322A",
"6  c #39362B",
"7  c #3D3A2D",
"8  c #3A3332",
"9  c #3F3838",
"0  c #40372F",
"q  c #41392F",
"w  c #403733",
"e  c #413930",
"r  c #403838",
"t  c #483F3D",
"y  c #464135",
"u  c #494335",
"i  c #4F4937",
"p  c #4B423E",
"a  c #4E483B",
"s  c #524D3C",
"d  c #54513F",
"f  c #59523E",
"g  c #4D4541",
"h  c #504742",
"j  c #524943",
"k  c #594F47",
"l  c #584F48",
"z  c #5B5345",
"x  c #595148",
"c  c #605B44",
"v  c #61574D",
"b  c #62594D",
"n  c #655D51",
"m  c #695F52",
"M  c #67614A",
"N  c #6B654D",
"B  c #70694F",
"V  c #6A6254",
"C  c #6E6A54",
"Z  c #706757",
"A  c #756D54",
"S  c #726758",
"D  c #746B5A",
"F  c #7A6F5C",
"G  c #7A735C",
"H  c #7D7562",
"J  c #7F7862",
"K  c #837B5D",
"L  c #827762",
"P  c #817963",
"I  c #887F63",
"U  c #867E68",
"Y  c #897F69",
"T  c #8B8364",
"R  c #8D846A",
"E  c #908567",
"W  c #91856B",
"Q  c #948B6B",
"!  c #988D6C",
"~  c #97906F",
"^  c #9D936E",
"/  c #958D72",
"(  c #998D71",
")  c #979070",
"_  c #9C9373",
"`  c #9E9678",
"'  c #9F9878",
"]  c #A09475",
"[  c #A49B76",
"{  c #A39A7B",
"}  c #A99E7B",
"|  c #ADA27E",
" . c #B0A37F",
".. c #B4A87E",
"X. c #ADA582",
"o. c #B2A581",
"O. c #B2A984",
"+. c #B9AC82",
"@. c #B5AD88",
"#. c #BDB186",
"$. c #BCB48C",
"%. c #C3B68C",
"&. c #C6B98D",
"*. c #C9BB8F",
"=. c #C1B990",
"-. c #CABE92",
";. c #CEC295",
":. c #D3C595",
">. c #D6C896",
",. c #D1C698",
"<. c #D6C999",
"1. c #DACC9A",
"2. c #DFD09E",
"3. c #E2D39F",
"4. c #DFD2A0",
"5. c #E4D6A2",
"6. c #E7D8A3",
"7. c #ECDCA5",
"8. c #EFDFA8",
"9. c #F0E0A8",
/* pixels */
"                                                                                                                                                                                    ",
"                                                                                                                                                                                    ",
"                                                                                                                                                                                    ",
"                                                                                                                                                                                    ",
"                                                                                                                                                                                    ",
"                                                                                                                                                                                    ",
"                                                                                                                                                                                    ",
"                                                                                                                                                                                    ",
"                                                                                                                                                                                    ",
"                                                                                                                                                                                    ",
"                                                                                                                                                                                    ",
"                                                                                                                                                                                    ",
"                                                                                                                                                                                    ",
"                                                                                                                                                                                    ",
"                                                                                                                                                                                    ",
"                                                                                                                                                                                    ",
"                                                      w w w w 0 0 0 0 q           9 9 9 9 9 9 9 9 r             e e 0 0 0 e 0 e                                                     ",
"                                                      e 0 0 e 0 e 0 0 0           9 9 9 9 9 9 9 r r             e e 0 0 0 0 0 e                                                     ",
"                                                  u x J P T Q Q ! ! E A . X & r r H J J J J U J H H h r 2 + . s G ! ! ! ! W L K a -                                                 ",
"                                                e u z O.O.#.:.1.1.1.&.R . X & r 9 / X.O.O.O.X.X.O.{ j r 2 + . f ! 1.1.1.1.-.O.o.d & .                                               ",
"                                                6 e z =.$.,.7.9.9.9.1.^ @ % ; 8 8 ' $.=.=.=.;.=.=.O.p 8 2 & @ M } 9.9.9.9.5.=.=.d % . .                                             ",
"                                                < 3 s $.$.,.7.9.9.9.3. .s s e < , | ;.,.,.,.,.,.,.$.8 , 4 u s T #.9.9.9.9.5.=.=.d * . .                                             ",
"                                                . O 3 =.=.,.7.9.9.9.9.9.9.1.K . . +.5.8.9.9.9.9.7.:.$ . < ..8.8.9.9.9.9.9.5.$.=.d * . .                                             ",
"                                                . + 3 =.$.,.8.9.9.9.9.9.8.1.K . . +.5.8.9.9.9.9.7.:.% . : ..8.8.9.9.9.9.9.5.=.=.d & . .                                             ",
"                                                . O < =.=.;.,.<.3.7.9.9.9.3.#.G G ,.6.9.9.9.9.9.7.2.T G T >.9.9.9.9.6.<.,.<.$.=.d % . .                                             ",
"                                                . O 1 =.$.=.$.$.2.6.9.9.9.7.2.&.=.6.7.9.9.9.9.9.9.7.=.=.;.2.9.9.9.7.6.=.$.$.=.=.d % . .                                             ",
"                                                . O < =.$.=.$.%.1.6.9.9.9.7.1.$.=.6.9.9.9.9.9.9.9.7.;.$.;.2.9.9.9.8.3.&.=.=.=.$.z % . .                                             ",
"                                                      1 3 d R _ [ } | #.9.9.7.6.4.9.9.9.9.9.9.9.9.7.6.4.6.7.9.>.%.} } _ ' P 3 3 >                                                   ",
"                                                      O O 4 K Q Q ~ _ +.9.9.7.7.7.9.9.9.9.9.9.9.9.9.7.7.9.9.9.;...~ ~ Q Q C O O                                                     ",
"                                                      . . < N A T Q [ @.9.9.9.9.9.9.9.9.9.9.9.9.9.9.9.9.9.9.9.;...~ T G A c . .                                                     ",
"                                                          * 7 7 G ) @.&.9.9.9.9.9.9.9.9.9.9.9.9.9.9.9.9.9.9.9.>.$.| Q y 7 7                                                         ",
"                                                            . . M | =.,.9.9.9.9.9.9.9.9.9.9.9.9.9.9.9.9.9.9.9.2.;.$.Q @ . .                                                         ",
"                                                            X X C | ;.,.9.9.9.9.9.9.9.9.9.9.9.9.9.9.9.9.9.9.9.3.-.&.( $ X X                                                         ",
"                                                            , , R =.6.6.9.9.9.9.9.9.9.9.9.9.9.9.9.9.9.9.9.9.9.7.5.2.o.w , ,                                                         ",
"                                                            9 9 ' >.9.9.9.9.9.9.9.9.9.9.9.9.9.9.9.9.9.9.9.9.9.9.8.7.%.j r r                                                         ",
"                                                            9 9 _ >.9.9.9.9.9.9.9.9.9.9.9.9.9.9.9.9.9.9.9.9.9.9.8.7.%.h r r                                                         ",
"                                                      r 9 m { O.,.5.9.9.9.9.9.9.9.9.9.9.9.9.9.9.9.9.9.9.9.9.9.9.9.7.5.@.O./ r r                                                     ",
"                                                      r 9 m X.$.1.7.9.9.9.9.9.9.9.9.9.9.9.9.9.9.9.9.9.9.9.9.9.9.9.9.5.$.$.` r r                                                     ",
"                                                      r r V ) { -.5.7.1.&.*.<.8.9.9.9.9.9.9.9.9.9.9.9.9.6.-.*.>.5.7.1.X.' / r r                                                     ",
"                                                          l m V O.1.3.%.G P | 9.9.9.9.9.9.9.9.9.9.9.9.9.<.W L [ -.7.-.D V V                                                         ",
"                                                            r r ] <.2.| 9 g W 8.8.8.9.9.9.9.9.9.9.9.9.9.,.V r P +.7.%.j r r                                                         ",
"                                                            r r Y } o.! m V X.7.8.8.9.9.8.8.9.9.9.9.9.9.<.W m P ] O.} h r r                                                         ",
"                                                                v n Z F X.X.%.9.8.8.9.9.8.8.8.8.9.9.9.9.5.@.{ R H m m                                                               ",
"                                                                r r g S =.-.<.9.8.8.7.6.6.7.7.6.7.6.9.9.6.;.=.W m r r                                                               ",
"                                                                r r g D -.-.2.9.9.1.<.1.1.1.1.1.1.1.8.9.7.,.-./ V r r                                                               ",
"                                                                r r j L 8.8.9.9.9.m t r r r r r r l 1.9.9.9.9.} D r r                                                               ",
"                                                                r r j L 8.8.8.9.9.m t w r r r r r k 1.9.9.9.9.| F 9 r                                                               ",
"                                                                r r j L 8.7.<.O.O.L L F F F F F F L o.O.%.5.9.&.( F S                                                               ",
"                                                                r r h L 9.2.} j j +.:.2.3.>.3.1.1.%.v j S -.9.7.3.>. .p r r                                                         ",
"                                                                r r h P 9.2.] r r &.6.9.9.9.9.9.8.1.j r v &.9.9.9.7.&.h r r                                                         ",
"                                                            r r L ( ( ! W R W ] ] -.,.;.&...;.>.7.1.j r v &.9.9.9.7.%.h r r                                                         ",
"                                                            r 9 ! %.*.{ x b W <.:.;.;.%...^ ..;.8.2.j r v %.9.9.9.7.%.h r r                                                         ",
"                                                            r r ] <.2.| r j R 9.8.=.$.O.^ ^ | ;.7.1.j r v &.9.9.9.7.*.x a p                                                         ",
"                                                            r r ] <.2.| r a W 9.8.| ~ Q Q } %.>.7.1.j r v %.9.9.9.8.-.F Z v                                                         ",
"                                                            r r ] <.2.| 9 j R 9.9.4 X - Q 9.9.9.7.1.h r v %.9.9.9.9.9.9.9.... .                                                     ",
"                                                            r r ] <.2.| 9 j R 9.9.4 o - ! 9.9.9.8.1.j r v &.9.9.9.9.9.9.9.... .                                                     ",
"                                                          e G L %.1.2. .w h Y 9.9.u = - n ! Q Q ! E H L / <.9.9.9.9.9.9.9.... .                                                     ",
"                                                      . . i :.9.8.8.2.| w h W 9.9.m t 8 $ . . . . * :.9.9.9.9.9.9.9.9.8.9.... .                                                     ",
"                                                      . . s >.9.8.9.3. .r h W 9.9.m t 2 $ . . . X * :.9.9.9.9.9.9.9.9.8.9.+.. .                                                     ",
"                                                      . . i :.9.8.9.1.] $ ; F 9.9.m t h A ^ ^ ^ ^ | 7.9.9.9.9.9.9.8.6.<.,.} , ,                                                     ",
"                                                      . . i >.9.9.9.>.! X * B 8.9.m p l ^ 1.1.2.1.2.9.9.9.9.9.9.8.9.5.-.=.{ 8 8                                                     ",
"                                                      . . i :.7.7.9.1.Q . # N 9.9.D l n [ 1.2.3.9.9.9.9.9.9.9.7.8.7.<.@.O./ r r                                                     ",
"                                                      . . u %.1.3.9.1.Q X # N 9.9./ Y L Y (  .*.9.9.9.9.9.9.8.5.4.<.=.U P H r r                                                     ",
"                                                      . . 7 | &.3.3.1.! . # N 9.9.;.%.o.S r Z } 9.9.9.9.9.9.8.4.;.$.{ g 9 r                                                         ",
"                                                      . . r ' X.=.4.,.) - 7 A %.%.#.;.O.D r S { 6.6.,.-.<.4.6.1.,.$.' g 9 9                                                         ",
"                                                          y G H X.;.;.{ M V A C B #.:.$.F 9 V _ 1.,._ W ] -.<.;.,.$.' g 9 9                                                         ",
"                                                            9 9 J X.=.=.$.X.N . . ..3.:.L 9 n R $.O.g r l ` =.=.$.$.' g 9 9                                                         ",
"                                                            9 9 R @.=.$.=.O.N . . #.3.:.P 9 n R $.O.h 9 l X.$.=.$.$.' g 9 9                                                         ",
"                                                            r r U X.$.=.$.@.P 8 8 ; * & @ X & 2 j g r r l ` $.$.$.$./ $ X O                                                         ",
"                                                            r r U X.$.=.=.@.U 9 9 + . . . . + > 9 r r 9 l ` =.=.$.#./ + . .                                                         ",
"                                                            2 2 J X.=.$.$.@.U 9 9 # X . . . # , r r r r l U ` ` ` ) G O . .                                                         ",
"                                                            # O C X.=.=.=.@.U 9 e                         3 3 3 3 < <                                                               ",
"                                                            . . V | $.$.$.@.U 9 r                         . . . . . .                                                               ",
"                                                            . . s C G G G G M r r                           . . . .                                                                 ",
"                                                                1 6 7 7 7 7 7                                                                                                       ",
"                                                                . . . . . . .                                                                                                       ",
"                                                                  . . . . .                                                                                                         ",
"                                                                                                                                                                                    ",
"                                                                                                                                                                                    ",
"                                                                                                                                                                                    ",
"                                                                                                                                                                                    ",
"                                                                                                                                                                                    ",
"                                                                                                                                                                                    ",
"                                                                                                                                                                                    ",
"                                                                                                                                                                                    ",
"                                                                                                                                                                                    ",
"                                                                                                                                                                                    ",
"                                                                                                                                                                                    ",
"                                                                                                                                                                                    ",
"                                                                                                                                                                                    "
};
